<?xml version="1.0" encoding="utf-8"?>
<!-- Generator: Adobe Illustrator 25.2.1, SVG Export Plug-In . SVG Version: 6.00 Build 0)  -->
<svg version="1.1" id="Layer_1" xmlns="http://www.w3.org/2000/svg" xmlns:xlink="http://www.w3.org/1999/xlink" x="0px" y="0px"
	 viewBox="0 0 1080 1080" style="enable-background:new 0 0 1080 1080;" xml:space="preserve">
<style type="text/css">
	.st0{opacity:0.3;fill:#6E47FF;}
	.st1{fill:#03001E;}
	.st2{fill:none;stroke:#FFFFFF;stroke-width:10;stroke-linecap:round;stroke-linejoin:round;stroke-miterlimit:10;}
	.st3{fill:none;stroke:#FFFFFF;stroke-width:3;stroke-linecap:round;stroke-linejoin:round;stroke-miterlimit:10;}
	.st4{fill:#FFFFFF;}
	.st5{fill:#6E47FF;}
	.st6{opacity:0.2;fill:#070606;}
	.st7{fill:#A230ED;}
	.st8{opacity:0.1;fill:#070606;}
	.st9{opacity:0.07;fill:#070606;}
	.st10{opacity:0.2;fill:url(#SVGID_1_);}
</style>
<path class="st0" d="M399.9,1012.73c-118.69-17.94-230.27-113.6-305.28-237.77C19.91,651.36-17.65,498.95,28.64,384
	c45.98-115.52,176.08-194.46,300.7-236.06c124.32-42.17,243.43-47.87,367.75-24.92c124.62,23.52,254.45,75.68,308.99,171.38
	c54.54,95.7,33.78,234.93-18.71,345.18s-136.7,191.51-240.85,261.58C641.81,971.53,518.02,1030.97,399.9,1012.73z"/>
<path class="st1" d="M197.04,907.19C101.09,835.06,48.28,697.9,41.2,553.01c-7.08-144.25,32.2-296.23,127.51-375.43
	c95.31-79.85,247.28-87.58,376.72-65.04c129.44,21.89,236.98,73.41,335.51,152.62c98.53,79.85,188.04,187.39,190.61,297.51
	c2.58,110.12-81.78,222.81-180.31,294.94S680.02,961.28,555.09,973.52C429.51,985.75,292.35,979.31,197.04,907.19z"/>
<g>
	<rect x="224.68" y="150.78" class="st2" width="664.33" height="587.62"/>
	<g>
		<polygon class="st3" points="453.49,500.3 416.89,489.75 416.89,447.25 453.49,457.79 		"/>
		<polygon class="st3" points="453.49,500.3 490.1,489.75 490.1,447.25 453.49,457.79 		"/>
		<polygon class="st3" points="453.49,457.79 416.89,447.25 453.49,438.93 490.1,447.25 		"/>
	</g>
	<g>
		<polygon class="st3" points="453.49,656.99 416.89,646.45 416.89,603.94 453.49,614.49 		"/>
		<polygon class="st3" points="453.49,656.99 490.1,646.45 490.1,603.94 453.49,614.49 		"/>
		<polygon class="st3" points="453.49,614.49 416.89,603.94 453.49,595.63 490.1,603.94 		"/>
	</g>
	<g>
		<polygon class="st3" points="556.04,656.95 519.44,646.4 519.44,603.9 556.04,614.44 		"/>
		<polygon class="st3" points="556.04,656.95 592.65,646.4 592.65,603.9 556.04,614.44 		"/>
		<polygon class="st3" points="556.04,614.44 519.44,603.9 556.04,595.58 592.65,603.9 		"/>
	</g>
	<g>
		<polygon class="st3" points="348.74,656.95 312.14,646.4 312.14,603.9 348.74,614.44 		"/>
		<polygon class="st3" points="348.74,656.95 385.35,646.4 385.35,603.9 348.74,614.44 		"/>
		<polygon class="st3" points="348.74,614.44 312.14,603.9 348.74,595.58 385.35,603.9 		"/>
	</g>
	<rect x="271.1" y="184.94" class="st3" width="38.94" height="38.94"/>
	<rect x="333.15" y="184.94" class="st3" width="38.94" height="38.94"/>
	<rect x="396.77" y="184.94" class="st3" width="38.94" height="38.94"/>
	<rect x="271.1" y="242.71" class="st3" width="38.94" height="38.94"/>
	<rect x="333.15" y="242.71" class="st3" width="38.94" height="38.94"/>
	<rect x="395.72" y="242.71" class="st3" width="38.94" height="38.94"/>
	<polyline class="st3" points="518.78,379.72 487.48,379.72 487.48,340.78 526.43,340.78 526.43,361.66 	"/>
	<rect x="434" y="340.82" class="st3" width="38.94" height="38.94"/>
	<rect x="689.14" y="181.67" class="st3" width="38.94" height="38.94"/>
	<polyline class="st3" points="744.75,207.15 744.75,181.67 783.7,181.67 783.7,220.61 779.3,220.61 	"/>
	
		<rect x="738.07" y="208.27" transform="matrix(0.9966 0.0825 -0.0825 0.9966 21.3623 -61.6986)" class="st3" width="38.94" height="38.94"/>
	<rect x="795.35" y="201.73" class="st3" width="38.94" height="38.94"/>
	<polyline class="st3" points="802.71,201.14 802.71,181.67 841.65,181.67 841.65,220.61 834.84,220.61 	"/>
	
		<rect x="518.27" y="365.25" transform="matrix(0.9902 0.14 -0.14 0.9902 59.1346 -71.4708)" class="st3" width="38.94" height="38.94"/>
	<g>
		<path class="st4" d="M277.85,193.69c2.06-0.15,4.12-0.23,6.18-0.29c2.06-0.07,4.12-0.08,6.18-0.09c2.06,0.01,4.12,0.02,6.18,0.09
			c2.06,0.06,4.12,0.13,6.18,0.29c-2.06,0.16-4.12,0.23-6.18,0.29c-2.06,0.07-4.12,0.08-6.18,0.09c-2.06-0.01-4.12-0.02-6.18-0.09
			C281.97,193.92,279.91,193.84,277.85,193.69z"/>
	</g>
	<g>
		<path class="st4" d="M278.22,200.04c2.06-0.15,4.12-0.23,6.18-0.29c2.06-0.07,4.12-0.08,6.18-0.09c2.06,0.01,4.12,0.02,6.18,0.09
			c2.06,0.06,4.12,0.13,6.18,0.29c-2.06,0.16-4.12,0.23-6.18,0.29c-2.06,0.07-4.12,0.08-6.18,0.09c-2.06-0.01-4.12-0.02-6.18-0.09
			C282.33,200.27,280.27,200.19,278.22,200.04z"/>
	</g>
	<g>
		<path class="st4" d="M278.22,206.39c2.06-0.15,4.12-0.23,6.18-0.29c2.06-0.07,4.12-0.08,6.18-0.09c2.06,0.01,4.12,0.02,6.18,0.09
			c2.06,0.06,4.12,0.13,6.18,0.29c-2.06,0.16-4.12,0.23-6.18,0.29c-2.06,0.07-4.12,0.08-6.18,0.09c-2.06-0.01-4.12-0.02-6.18-0.09
			C282.33,206.62,280.27,206.55,278.22,206.39z"/>
	</g>
	<g>
		<path class="st4" d="M277.85,253.6c2.06-0.15,4.12-0.23,6.18-0.29c2.06-0.07,4.12-0.08,6.18-0.09c2.06,0.01,4.12,0.02,6.18,0.09
			c2.06,0.06,4.12,0.13,6.18,0.29c-2.06,0.16-4.12,0.23-6.18,0.29c-2.06,0.07-4.12,0.08-6.18,0.09c-2.06-0.01-4.12-0.02-6.18-0.09
			C281.97,253.82,279.91,253.75,277.85,253.6z"/>
	</g>
	<g>
		<path class="st4" d="M343.6,256.17c1.69-0.15,3.38-0.23,5.07-0.29c1.69-0.07,3.38-0.08,5.07-0.09c1.69,0.01,3.38,0.02,5.07,0.09
			c1.69,0.06,3.38,0.13,5.07,0.29c-1.69,0.16-3.38,0.23-5.07,0.29c-1.69,0.07-3.38,0.08-5.07,0.09c-1.69-0.01-3.38-0.02-5.07-0.09
			C346.97,256.4,345.29,256.33,343.6,256.17z"/>
	</g>
	<g>
		<path class="st4" d="M339.15,261.49c2.06-0.15,4.12-0.23,6.18-0.29c2.06-0.07,4.12-0.08,6.18-0.09c2.06,0.01,4.12,0.02,6.18,0.09
			c2.06,0.06,4.12,0.13,6.18,0.29c-2.06,0.16-4.12,0.23-6.18,0.29c-2.06,0.07-4.12,0.08-6.18,0.09c-2.06-0.01-4.12-0.02-6.18-0.09
			C343.27,261.72,341.21,261.65,339.15,261.49z"/>
	</g>
	<g>
		<path class="st4" d="M339.15,265.61c2.06-0.15,4.12-0.23,6.18-0.29c2.06-0.07,4.12-0.08,6.18-0.09c2.06,0.01,4.12,0.02,6.18,0.09
			c2.06,0.06,4.12,0.13,6.18,0.29c-2.06,0.16-4.12,0.23-6.18,0.29c-2.06,0.07-4.12,0.08-6.18,0.09c-2.06-0.01-4.12-0.02-6.18-0.09
			C343.27,265.84,341.21,265.77,339.15,265.61z"/>
	</g>
	<g>
		<path class="st4" d="M339.67,270.25c2.06-0.15,4.12-0.23,6.18-0.29c2.06-0.07,4.12-0.08,6.18-0.09c2.06,0.01,4.12,0.02,6.18,0.09
			c2.06,0.06,4.12,0.13,6.18,0.29c-2.06,0.16-4.12,0.23-6.18,0.29c-2.06,0.07-4.12,0.08-6.18,0.09c-2.06-0.01-4.12-0.02-6.18-0.09
			C343.79,270.47,341.73,270.4,339.67,270.25z"/>
	</g>
	<g>
		<path class="st4" d="M277.85,259.6c2.06-0.15,4.12-0.23,6.18-0.29c2.06-0.07,4.12-0.08,6.18-0.09c2.06,0.01,4.12,0.02,6.18,0.09
			c2.06,0.06,4.12,0.13,6.18,0.29c-2.06,0.16-4.12,0.23-6.18,0.29c-2.06,0.07-4.12,0.08-6.18,0.09c-2.06-0.01-4.12-0.02-6.18-0.09
			C281.97,259.83,279.91,259.76,277.85,259.6z"/>
	</g>
	<g>
		<path class="st4" d="M277.85,265.61c2.06-0.15,4.12-0.23,6.18-0.29c2.06-0.07,4.12-0.08,6.18-0.09c2.06,0.01,4.12,0.02,6.18,0.09
			c2.06,0.06,4.12,0.13,6.18,0.29c-2.06,0.16-4.12,0.23-6.18,0.29c-2.06,0.07-4.12,0.08-6.18,0.09c-2.06-0.01-4.12-0.02-6.18-0.09
			C281.97,265.84,279.91,265.77,277.85,265.61z"/>
	</g>
	<g>
		<path class="st4" d="M277.85,271.62c2.06-0.15,4.12-0.23,6.18-0.29c2.06-0.07,4.12-0.08,6.18-0.09c2.06,0.01,4.12,0.02,6.18,0.09
			c2.06,0.06,4.12,0.13,6.18,0.29c-2.06,0.16-4.12,0.23-6.18,0.29c-2.06,0.07-4.12,0.08-6.18,0.09c-2.06-0.01-4.12-0.02-6.18-0.09
			C281.97,271.85,279.91,271.77,277.85,271.62z"/>
	</g>
	<g>
		<path class="st4" d="M339.15,211.37c2.06-0.15,4.12-0.23,6.18-0.29c2.06-0.07,4.12-0.08,6.18-0.09c2.06,0.01,4.12,0.02,6.18,0.09
			c2.06,0.06,4.12,0.13,6.18,0.29c-2.06,0.16-4.12,0.23-6.18,0.29c-2.06,0.07-4.12,0.08-6.18,0.09c-2.06-0.01-4.12-0.02-6.18-0.09
			C343.27,211.6,341.21,211.52,339.15,211.37z"/>
	</g>
	<g>
		<path class="st4" d="M339.15,205.19c2.06-0.15,4.12-0.23,6.18-0.29c2.06-0.07,4.12-0.08,6.18-0.09c2.06,0.01,4.12,0.02,6.18,0.09
			c2.06,0.06,4.12,0.13,6.18,0.29c-2.06,0.16-4.12,0.23-6.18,0.29c-2.06,0.07-4.12,0.08-6.18,0.09c-2.06-0.01-4.12-0.02-6.18-0.09
			C343.27,205.42,341.21,205.34,339.15,205.19z"/>
	</g>
	<g>
		<path class="st4" d="M343.6,199.01c1.69-0.15,3.38-0.23,5.07-0.29c1.69-0.07,3.38-0.08,5.07-0.09c1.69,0.01,3.38,0.02,5.07,0.09
			c1.69,0.06,3.38,0.13,5.07,0.29c-1.69,0.16-3.38,0.23-5.07,0.29c-1.69,0.07-3.38,0.08-5.07,0.09c-1.69-0.01-3.38-0.02-5.07-0.09
			C346.97,199.24,345.29,199.16,343.6,199.01z"/>
	</g>
	<g>
		<path class="st4" d="M403.88,208.98c2.06-0.15,4.12-0.23,6.18-0.29c2.06-0.07,4.12-0.08,6.18-0.09c2.06,0.01,4.12,0.02,6.18,0.09
			c2.06,0.06,4.12,0.13,6.18,0.29c-2.06,0.16-4.12,0.23-6.18,0.29c-2.06,0.07-4.12,0.08-6.18,0.09c-2.06-0.01-4.12-0.02-6.18-0.09
			C408,209.2,405.94,209.13,403.88,208.98z"/>
	</g>
	<g>
		<path class="st4" d="M403.88,202.63c2.06-0.15,4.12-0.23,6.18-0.29c2.06-0.07,4.12-0.08,6.18-0.09c2.06,0.01,4.12,0.02,6.18,0.09
			c2.06,0.06,4.12,0.13,6.18,0.29c-2.06,0.16-4.12,0.23-6.18,0.29c-2.06,0.07-4.12,0.08-6.18,0.09c-2.06-0.01-4.12-0.02-6.18-0.09
			C408,202.85,405.94,202.78,403.88,202.63z"/>
	</g>
	<g>
		<path class="st4" d="M403.88,215.33c2.06-0.15,4.12-0.23,6.18-0.29c2.06-0.07,4.12-0.08,6.18-0.09c2.06,0.01,4.12,0.02,6.18,0.09
			c2.06,0.06,4.12,0.13,6.18,0.29c-2.06,0.16-4.12,0.23-6.18,0.29c-2.06,0.07-4.12,0.08-6.18,0.09c-2.06-0.01-4.12-0.02-6.18-0.09
			C408,215.56,405.94,215.48,403.88,215.33z"/>
	</g>
	<g>
		<path class="st4" d="M402.83,252.47c2.06-0.15,4.12-0.23,6.18-0.29c2.06-0.07,4.12-0.08,6.18-0.09c2.06,0.01,4.12,0.02,6.18,0.09
			c2.06,0.06,4.12,0.13,6.18,0.29c-2.06,0.16-4.12,0.23-6.18,0.29c-2.06,0.07-4.12,0.08-6.18,0.09c-2.06-0.01-4.12-0.02-6.18-0.09
			C406.95,252.7,404.89,252.63,402.83,252.47z"/>
	</g>
	<g>
		<path class="st4" d="M402.83,259.27c2.06-0.15,4.12-0.23,6.18-0.29c2.06-0.07,4.12-0.08,6.18-0.09c2.06,0.01,4.12,0.02,6.18,0.09
			c2.06,0.06,4.12,0.13,6.18,0.29c-2.06,0.16-4.12,0.23-6.18,0.29c-2.06,0.07-4.12,0.08-6.18,0.09c-2.06-0.01-4.12-0.02-6.18-0.09
			C406.95,259.5,404.89,259.43,402.83,259.27z"/>
	</g>
	<g>
		<path class="st4" d="M402.83,265.04c2.06-0.15,4.12-0.23,6.18-0.29c2.06-0.07,4.12-0.08,6.18-0.09c2.06,0.01,4.12,0.02,6.18,0.09
			c2.06,0.06,4.12,0.13,6.18,0.29c-2.06,0.16-4.12,0.23-6.18,0.29c-2.06,0.07-4.12,0.08-6.18,0.09c-2.06-0.01-4.12-0.02-6.18-0.09
			C406.95,265.27,404.89,265.2,402.83,265.04z"/>
	</g>
	<g>
		<path class="st4" d="M402.83,270.82c2.06-0.15,4.12-0.23,6.18-0.29c2.06-0.07,4.12-0.08,6.18-0.09c2.06,0.01,4.12,0.02,6.18,0.09
			c2.06,0.06,4.12,0.13,6.18,0.29c-2.06,0.16-4.12,0.23-6.18,0.29c-2.06,0.07-4.12,0.08-6.18,0.09c-2.06-0.01-4.12-0.02-6.18-0.09
			C406.95,271.04,404.89,270.97,402.83,270.82z"/>
	</g>
	<rect x="625.96" y="332.14" class="st3" width="38.94" height="38.94"/>
	<g>
		<path class="st4" d="M633.07,341.9c2.06-0.15,4.12-0.23,6.18-0.29c2.06-0.07,4.12-0.08,6.18-0.09c2.06,0.01,4.12,0.02,6.18,0.09
			c2.06,0.06,4.12,0.13,6.18,0.29c-2.06,0.16-4.12,0.23-6.18,0.29c-2.06,0.07-4.12,0.08-6.18,0.09c-2.06-0.01-4.12-0.02-6.18-0.09
			C637.19,342.13,635.13,342.05,633.07,341.9z"/>
	</g>
	<g>
		<path class="st4" d="M633.07,348.7c2.06-0.15,4.12-0.23,6.18-0.29c2.06-0.07,4.12-0.08,6.18-0.09c2.06,0.01,4.12,0.02,6.18,0.09
			c2.06,0.06,4.12,0.13,6.18,0.29c-2.06,0.16-4.12,0.23-6.18,0.29c-2.06,0.07-4.12,0.08-6.18,0.09c-2.06-0.01-4.12-0.02-6.18-0.09
			C637.19,348.93,635.13,348.85,633.07,348.7z"/>
	</g>
	<g>
		<path class="st4" d="M633.07,354.47c2.06-0.15,4.12-0.23,6.18-0.29c2.06-0.07,4.12-0.08,6.18-0.09c2.06,0.01,4.12,0.02,6.18,0.09
			c2.06,0.06,4.12,0.13,6.18,0.29c-2.06,0.16-4.12,0.23-6.18,0.29c-2.06,0.07-4.12,0.08-6.18,0.09c-2.06-0.01-4.12-0.02-6.18-0.09
			C637.19,354.7,635.13,354.63,633.07,354.47z"/>
	</g>
	<rect x="685.34" y="332.14" class="st3" width="38.94" height="38.94"/>
	<g>
		<path class="st4" d="M692.45,341.9c2.06-0.15,4.12-0.23,6.18-0.29c2.06-0.07,4.12-0.08,6.18-0.09c2.06,0.01,4.12,0.02,6.18,0.09
			c2.06,0.06,4.12,0.13,6.18,0.29c-2.06,0.16-4.12,0.23-6.18,0.29c-2.06,0.07-4.12,0.08-6.18,0.09c-2.06-0.01-4.12-0.02-6.18-0.09
			C696.57,342.13,694.51,342.05,692.45,341.9z"/>
	</g>
	<g>
		<path class="st4" d="M692.45,348.7c2.06-0.15,4.12-0.23,6.18-0.29c2.06-0.07,4.12-0.08,6.18-0.09c2.06,0.01,4.12,0.02,6.18,0.09
			c2.06,0.06,4.12,0.13,6.18,0.29c-2.06,0.16-4.12,0.23-6.18,0.29c-2.06,0.07-4.12,0.08-6.18,0.09c-2.06-0.01-4.12-0.02-6.18-0.09
			C696.57,348.93,694.51,348.85,692.45,348.7z"/>
	</g>
	<g>
		<path class="st4" d="M692.45,354.47c2.06-0.15,4.12-0.23,6.18-0.29c2.06-0.07,4.12-0.08,6.18-0.09c2.06,0.01,4.12,0.02,6.18,0.09
			c2.06,0.06,4.12,0.13,6.18,0.29c-2.06,0.16-4.12,0.23-6.18,0.29c-2.06,0.07-4.12,0.08-6.18,0.09c-2.06-0.01-4.12-0.02-6.18-0.09
			C696.57,354.7,694.51,354.63,692.45,354.47z"/>
	</g>
	<g>
		<path class="st4" d="M692.45,360.25c2.06-0.15,4.12-0.23,6.18-0.29c2.06-0.07,4.12-0.08,6.18-0.09c2.06,0.01,4.12,0.02,6.18,0.09
			c2.06,0.06,4.12,0.13,6.18,0.29c-2.06,0.16-4.12,0.23-6.18,0.29c-2.06,0.07-4.12,0.08-6.18,0.09c-2.06-0.01-4.12-0.02-6.18-0.09
			C696.57,360.47,694.51,360.4,692.45,360.25z"/>
	</g>
	<rect x="625.96" y="392.71" class="st3" width="38.94" height="38.94"/>
	<g>
		<path class="st4" d="M633.07,402.47c2.06-0.15,4.12-0.23,6.18-0.29c2.06-0.07,4.12-0.08,6.18-0.09c2.06,0.01,4.12,0.02,6.18,0.09
			c2.06,0.06,4.12,0.13,6.18,0.29c-2.06,0.16-4.12,0.23-6.18,0.29c-2.06,0.07-4.12,0.08-6.18,0.09c-2.06-0.01-4.12-0.02-6.18-0.09
			C637.19,402.7,635.13,402.62,633.07,402.47z"/>
	</g>
	<g>
		<path class="st4" d="M633.07,409.27c2.06-0.15,4.12-0.23,6.18-0.29c2.06-0.07,4.12-0.08,6.18-0.09c2.06,0.01,4.12,0.02,6.18,0.09
			c2.06,0.06,4.12,0.13,6.18,0.29c-2.06,0.16-4.12,0.23-6.18,0.29c-2.06,0.07-4.12,0.08-6.18,0.09c-2.06-0.01-4.12-0.02-6.18-0.09
			C637.19,409.5,635.13,409.42,633.07,409.27z"/>
	</g>
	<g>
		<path class="st4" d="M633.07,415.04c2.06-0.15,4.12-0.23,6.18-0.29c2.06-0.07,4.12-0.08,6.18-0.09c2.06,0.01,4.12,0.02,6.18,0.09
			c2.06,0.06,4.12,0.13,6.18,0.29c-2.06,0.16-4.12,0.23-6.18,0.29c-2.06,0.07-4.12,0.08-6.18,0.09c-2.06-0.01-4.12-0.02-6.18-0.09
			C637.19,415.27,635.13,415.2,633.07,415.04z"/>
	</g>
	<g>
		<path class="st4" d="M633.07,420.82c2.06-0.15,4.12-0.23,6.18-0.29c2.06-0.07,4.12-0.08,6.18-0.09c2.06,0.01,4.12,0.02,6.18,0.09
			c2.06,0.06,4.12,0.13,6.18,0.29c-2.06,0.16-4.12,0.23-6.18,0.29c-2.06,0.07-4.12,0.08-6.18,0.09c-2.06-0.01-4.12-0.02-6.18-0.09
			C637.19,421.04,635.13,420.97,633.07,420.82z"/>
	</g>
	<g>
		<path class="st4" d="M441.13,351.12c2.06-0.15,4.12-0.23,6.18-0.29c2.06-0.07,4.12-0.08,6.18-0.09c2.06,0.01,4.12,0.02,6.18,0.09
			c2.06,0.06,4.12,0.13,6.18,0.29c-2.06,0.16-4.12,0.23-6.18,0.29c-2.06,0.07-4.12,0.08-6.18,0.09c-2.06-0.01-4.12-0.02-6.18-0.09
			C445.25,351.35,443.19,351.27,441.13,351.12z"/>
	</g>
	<g>
		<path class="st4" d="M441.13,357.92c2.06-0.15,4.12-0.23,6.18-0.29c2.06-0.07,4.12-0.08,6.18-0.09c2.06,0.01,4.12,0.02,6.18,0.09
			c2.06,0.06,4.12,0.13,6.18,0.29c-2.06,0.16-4.12,0.23-6.18,0.29c-2.06,0.07-4.12,0.08-6.18,0.09c-2.06-0.01-4.12-0.02-6.18-0.09
			C445.25,358.14,443.19,358.07,441.13,357.92z"/>
	</g>
	<g>
		<path class="st4" d="M441.13,363.69c2.06-0.15,4.12-0.23,6.18-0.29c2.06-0.07,4.12-0.08,6.18-0.09c2.06,0.01,4.12,0.02,6.18,0.09
			c2.06,0.06,4.12,0.13,6.18,0.29c-2.06,0.16-4.12,0.23-6.18,0.29c-2.06,0.07-4.12,0.08-6.18,0.09c-2.06-0.01-4.12-0.02-6.18-0.09
			C445.25,363.92,443.19,363.85,441.13,363.69z"/>
	</g>
	<g>
		<path class="st4" d="M441.13,369.46c2.06-0.15,4.12-0.23,6.18-0.29c2.06-0.07,4.12-0.08,6.18-0.09c2.06,0.01,4.12,0.02,6.18,0.09
			c2.06,0.06,4.12,0.13,6.18,0.29c-2.06,0.16-4.12,0.23-6.18,0.29c-2.06,0.07-4.12,0.08-6.18,0.09c-2.06-0.01-4.12-0.02-6.18-0.09
			C445.25,369.69,443.19,369.62,441.13,369.46z"/>
	</g>
	<g>
		<path class="st4" d="M493.21,351.12c2.06-0.15,4.12-0.23,6.18-0.29c2.06-0.07,4.12-0.08,6.18-0.09c2.06,0.01,4.12,0.02,6.18,0.09
			c2.06,0.06,4.12,0.13,6.18,0.29c-2.06,0.16-4.12,0.23-6.18,0.29c-2.06,0.07-4.12,0.08-6.18,0.09c-2.06-0.01-4.12-0.02-6.18-0.09
			C497.33,351.35,495.27,351.27,493.21,351.12z"/>
	</g>
	<g>
		<path class="st4" d="M493.21,357.92c2.06-0.15,4.12-0.23,6.18-0.29c2.06-0.07,4.12-0.08,6.18-0.09c2.06,0.01,4.12,0.02,6.18,0.09
			c2.06,0.06,4.12,0.13,6.18,0.29c-2.06,0.16-4.12,0.23-6.18,0.29c-2.06,0.07-4.12,0.08-6.18,0.09c-2.06-0.01-4.12-0.02-6.18-0.09
			C497.33,358.14,495.27,358.07,493.21,357.92z"/>
	</g>
	<g>
		<path class="st4" d="M493.21,363.69c2.06-0.15,4.12-0.23,6.18-0.29c2.06-0.07,4.12-0.08,6.18-0.09c2.06,0.01,4.12,0.02,6.18,0.09
			c2.06,0.06,4.12,0.13,6.18,0.29c-2.06,0.16-4.12,0.23-6.18,0.29c-2.06,0.07-4.12,0.08-6.18,0.09c-2.06-0.01-4.12-0.02-6.18-0.09
			C497.33,363.92,495.27,363.85,493.21,363.69z"/>
	</g>
	<g>
		<path class="st4" d="M493.21,369.46c2.06-0.15,4.12-0.23,6.18-0.29c2.06-0.07,4.12-0.08,6.18-0.09c2.06,0.01,4.12,0.02,6.18,0.09
			c2.06,0.06,4.12,0.13,6.18,0.29c-2.06,0.16-4.12,0.23-6.18,0.29c-2.06,0.07-4.12,0.08-6.18,0.09c-2.06-0.01-4.12-0.02-6.18-0.09
			C497.33,369.69,495.27,369.62,493.21,369.46z"/>
	</g>
	<g>
		<g>
			<path class="st4" d="M474.87,188.28c5.97,0.45,11.97,0.4,17.93-0.19c1.58-0.16,13.46-0.72,11.13-4.29
				c-0.88-1.34-2.63-0.68-3.15,0.57c-0.64,1.55,0.23,3.01,1.71,3.6c2.16,0.86,5,0.4,7.27,0.39c2.89-0.01,5.77-0.03,8.66-0.04
				c6.78-0.04,13.57-0.08,20.35-0.12c-0.2-0.15-0.4-0.31-0.6-0.46c0.23,1.25,0.46,2.5,0.68,3.74c0.06,0.32,0.47,0.54,0.77,0.44
				c4.75-1.7,9.64-3.01,14.62-3.86c2.59-0.44,5.2-0.77,7.81-0.97c1.12-0.09,5.59-0.87,5.67,1.12c0.02,0.48,0.51,0.78,0.94,0.54
				c1.76-0.97,3.72,0.48,5.27,1.26c1.37,0.7,2.83,1.17,4.36,1.39c2.99,0.44,6.01-0.1,8.69-1.49c0.71-0.37,0.08-1.45-0.63-1.08
				c-3.11,1.61-6.75,1.91-10.08,0.81c-2.62-0.86-5.39-3.56-8.24-1.98c0.31,0.18,0.63,0.36,0.94,0.54c-0.07-1.78-1.81-2.42-3.36-2.53
				c-2.75-0.2-5.71,0.3-8.44,0.67c-6.1,0.82-12.1,2.28-17.89,4.36c0.26,0.15,0.51,0.29,0.77,0.44c-0.23-1.25-0.46-2.5-0.68-3.74
				c-0.05-0.27-0.35-0.46-0.6-0.46c-8.96,0.05-17.92,0.11-26.88,0.16c-2.18,0.01-4.37,0.04-6.55,0.02c-0.9-0.01-1.94-0.01-2.74-0.49
				c-0.55-0.33-1.37-1.97-0.28-2.24c0.2-0.05,0.52,0.19,0.43,0.5c-0.04,0.14-0.5,0.38-0.67,0.47c-0.4,0.2-0.84,0.27-1.28,0.35
				c-1.19,0.22-2.39,0.41-3.59,0.58c-2.35,0.34-4.71,0.59-7.07,0.76c-5.09,0.37-10.19,0.35-15.27-0.03
				C474.07,186.97,474.07,188.22,474.87,188.28L474.87,188.28z"/>
		</g>
	</g>
	<g>
		<g>
			<path class="st4" d="M471.08,208.45c4.71,0.08,9.35-0.76,13.72-2.51c-0.26-0.26-0.51-0.51-0.77-0.77
				c-0.75,1.97,0.82,4.02,2.75,4.43c3.11,0.65,5.46-1.81,8.19-2.75c4.63-1.58,9.92,3.15,14.2-0.09c-0.31-0.12-0.61-0.25-0.92-0.37
				c0.44,2.39,3.24,1.93,4.84,1.2c1.64-0.74,2.98-0.88,4.71-0.36c1.47,0.44,2.87,1.13,4.36,1.52c3.15,0.83,6.61,0.11,9.79-0.2
				c3.62-0.34,7.25-0.69,10.87-1.03c0.79-0.08,0.8-1.33,0-1.25c-3.13,0.3-6.26,0.59-9.39,0.89c-3.05,0.29-6.3,0.94-9.37,0.66
				c-2.69-0.25-5-1.86-7.67-2.16c-1.13-0.13-2.18,0.06-3.22,0.52c-0.93,0.41-3.38,1.72-3.73-0.12c-0.07-0.37-0.61-0.61-0.92-0.37
				c-3.29,2.49-7.89-0.49-11.55-0.43c-2.18,0.03-3.94,1.11-5.81,2.11c-1.24,0.67-2.83,1.4-4.28,0.99c-1.23-0.35-2.15-1.59-1.67-2.85
				c0.16-0.42-0.34-0.94-0.77-0.77c-4.28,1.71-8.78,2.54-13.39,2.46C470.27,207.19,470.27,208.44,471.08,208.45L471.08,208.45z"/>
		</g>
	</g>
	<g>
		<g>
			<path class="st4" d="M554.92,206.52c2.02,1.95,4.79,2.99,7.61,2.65c1.93-0.23,3.73-0.94,5.68-1.02c2.04-0.09,4.08,0.16,6.11,0.34
				c1.95,0.17,3.92,0.42,5.87,0.45c1.77,0.03,3.3-0.45,4.97-0.92c0.99-0.28,1.94-0.45,2.97-0.21c0.84,0.19,1.62,0.58,2.46,0.76
				c1.21,0.26,2.36,0.12,3.32-0.7c0.61-0.52-0.27-1.4-0.88-0.88c-1.37,1.17-3.32-0.13-4.77-0.43c-1.23-0.26-2.44-0.02-3.62,0.32
				c-1.75,0.51-3.32,0.89-5.16,0.79c-1.72-0.09-3.43-0.28-5.15-0.42c-3.3-0.28-6.47-0.57-9.72,0.24c-3.23,0.8-6.28,0.6-8.79-1.83
				C555.22,205.07,554.34,205.96,554.92,206.52L554.92,206.52z"/>
		</g>
	</g>
	<g>
		<g>
			<path class="st4" d="M474.87,224.5c12.64-0.33,25.28-0.66,37.92-1c2.93-0.08,5.94-0.35,8.85,0.01c2.58,0.31,4.87,0.76,7.46,0.16
				c2.43-0.56,4.71-1.61,7.11-2.25c2.82-0.75,5.4-0.48,8.17,0.31c2.79,0.8,5.52,1.73,8.47,1.48c3.2-0.26,6.46-1.53,9.61-0.31
				c0.75,0.29,1.08-0.92,0.33-1.21c-2.45-0.94-4.99-0.49-7.49-0.07c-1.45,0.24-2.9,0.46-4.38,0.37c-1.49-0.1-2.94-0.5-4.37-0.92
				c-2.46-0.72-4.96-1.55-7.56-1.39c-2.48,0.15-4.81,1.06-7.14,1.86c-2.67,0.92-5.19,1.51-8.02,1.05c-2.87-0.46-5.64-0.48-8.54-0.41
				c-6.32,0.17-12.64,0.33-18.96,0.5c-7.15,0.19-14.3,0.38-21.45,0.56C474.07,223.28,474.06,224.53,474.87,224.5L474.87,224.5z"/>
		</g>
	</g>
	<g>
		<g>
			<path class="st4" d="M547.83,240.47c0.18,8.14-0.44,16.68-4.84,23.77c-1.94,3.12-4.56,5.85-7.8,7.63
				c-3.67,2.02-7.91,2.72-12.06,2.81c-3.98,0.08-8-0.31-11.85-1.36c-3.71-1.01-7.9-2.66-10.52-5.59c-1.27-1.42-2.3-3.42-1.41-5.31
				c0.66-1.4,2.16-2.08,3.63-2.29c3.33-0.49,6.74,1.11,9.26,3.18c2.64,2.16,4.64,5.11,5.61,8.38c1.08,3.67,0.67,7.48-0.59,11.05
				c-1.32,3.75-3.44,7.24-5.69,10.5c-2.14,3.1-4.58,6.01-7.36,8.56c-6.05,5.54-13.48,8.39-21.42,10.03
				c-8.5,1.76-17.2,2.65-25.88,2.61c-8.67-0.04-17.43-1-25.82-3.22c-7.39-1.96-15.27-5.77-17.86-13.56
				c-0.58-1.75-0.79-3.55-0.63-5.39c-0.39,0.11-0.78,0.21-1.16,0.32c1.68,2.24,3.71,4.09,6.11,5.53c0.69,0.41,1.32-0.67,0.63-1.08
				c-2.21-1.32-4.12-3.02-5.66-5.08c-0.37-0.5-1.11-0.33-1.16,0.32c-0.73,8.46,5.98,14.99,13.2,18.07
				c4.03,1.72,8.34,2.72,12.63,3.52c4.71,0.88,9.49,1.44,14.28,1.68c9.62,0.5,19.29-0.24,28.76-1.95
				c8.75-1.58,17.15-4.2,23.97-10.11c3.03-2.62,5.67-5.68,7.99-8.95c2.47-3.48,4.75-7.23,6.2-11.26c1.34-3.71,1.82-7.73,0.77-11.58
				c-0.94-3.43-2.94-6.59-5.61-8.93c-2.5-2.18-5.75-3.9-9.13-3.97c-2.94-0.06-6.19,1.3-6.6,4.55c-0.47,3.68,3.05,6.54,5.87,8.17
				c3.75,2.17,7.97,3.41,12.24,3.99c8.19,1.11,17.38,0.44,23.78-5.34c6.38-5.75,8.79-14.41,9.3-22.72c0.14-2.33,0.15-4.66,0.1-7
				C549.06,239.67,547.81,239.66,547.83,240.47L547.83,240.47z"/>
		</g>
	</g>
	<g>
		<g>
			<path class="st4" d="M410.49,292.9c-1.26,2.35-2.31,4.81-3.13,7.34c-0.25,0.77,0.96,1.1,1.21,0.33c0.79-2.43,1.79-4.79,3-7.04
				C411.95,292.83,410.87,292.19,410.49,292.9L410.49,292.9z"/>
		</g>
	</g>
	<line class="st3" x1="453.49" y1="500.3" x2="453.49" y2="595.58"/>
	<line class="st3" x1="415.97" y1="627.3" x2="385.35" y2="627.3"/>
	<line class="st3" x1="519.44" y1="627.3" x2="490.1" y2="627.3"/>
	<g>
		<g>
			<path class="st4" d="M656.5,295.81c-12.23,2-24.01,5.59-34.32,12.67c-7.12,4.89-13.24,11.09-18.35,18.04
				c-2.96,4.03-5.56,8.28-7.52,12.89c-1.91,4.5-3.28,9.21-4.24,14c-0.94,4.71-1.5,9.49-1.84,14.28c-0.32,4.64-0.56,9.32-0.35,13.97
				c0.37,8.06,2.15,16.03,5.2,23.49c6.01,14.72,16.67,27.23,29.6,36.37c13.09,9.26,28.77,15.32,44.79,16.59
				c16.17,1.29,32.48-2.94,46.33-11.27c13.69-8.23,25.03-20.4,31.99-34.8c8.1-16.77,9.87-36.25,4.68-54.16
				c-4.74-16.35-14.99-31.19-29.03-40.91c-16.26-11.25-36.52-14.01-55.86-12.76c-4.87,0.32-9.71,0.88-14.53,1.61
				c-0.79,0.12-0.46,1.32,0.33,1.21c19.44-2.95,40.31-3.18,58.61,4.95c15.6,6.93,27.94,19.87,35.14,35.25
				c7.92,16.89,9.21,36.46,3.54,54.24c-4.81,15.1-14.41,28.45-26.79,38.27c-12.34,9.78-27.56,16.03-43.3,17.16
				c-15.84,1.14-31.9-3.06-45.8-10.58c-13.78-7.46-25.79-18.44-33.76-32c-3.95-6.73-6.86-14.05-8.48-21.69
				c-1.77-8.38-1.65-16.88-1.03-25.38c0.71-9.71,2.39-19.52,6.41-28.45c3.81-8.46,9.79-16.15,16.53-22.49
				c9.94-9.36,22.24-15.22,35.52-18.04c2.27-0.48,4.56-0.88,6.85-1.26C657.62,296.88,657.28,295.68,656.5,295.81L656.5,295.81z"/>
		</g>
	</g>
	<g>
		<g>
			<path class="st4" d="M600.84,480.68c4.43,0.64,8.83,0.01,12.9-1.86c-0.31-0.12-0.61-0.25-0.92-0.37c0.34,1.37,0.68,2.74,1.02,4.1
				c0.1,0.4,0.58,0.57,0.92,0.37c3.25-1.88,6.69-3.8,10.49-4.22c3.7-0.41,7.51,0.66,11.17,1.1c7.92,0.97,15.9,1.14,23.87,1.08
				c16-0.13,32-0.67,47.99-1.23c9.1-0.32,18.19-0.68,27.28-1.09c0.8-0.04,0.81-1.29,0-1.25c-16.36,0.73-32.74,1.32-49.11,1.76
				c-8.23,0.22-16.46,0.45-24.7,0.54c-7.97,0.09-15.96-0.02-23.88-0.89c-4.26-0.47-8.74-1.79-13.05-1.22
				c-3.87,0.51-7.36,2.42-10.7,4.34c0.31,0.12,0.61,0.25,0.92,0.37c-0.34-1.37-0.68-2.74-1.02-4.1c-0.1-0.42-0.57-0.54-0.92-0.37
				c-3.73,1.71-7.87,2.32-11.93,1.73C600.38,479.37,600.04,480.57,600.84,480.68L600.84,480.68z"/>
		</g>
	</g>
	<g>
		<g>
			<path class="st4" d="M607.85,493.83c31.66-0.5,63.31-0.97,94.97-1.52c8.99-0.16,17.99-0.32,26.98-0.5c0.8-0.02,0.81-1.27,0-1.25
				c-31.65,0.63-63.3,1.1-94.96,1.6c-9,0.14-18,0.28-27,0.43C607.04,492.59,607.04,493.84,607.85,493.83L607.85,493.83z"/>
		</g>
	</g>
	<g>
		<g>
			<path class="st4" d="M608.01,502.86c0.62,3,4.21,2.97,6.34,1.72c0.75-0.44,1.39-1.15,2.15-1.54c1.19-0.61,1.75,0.39,2.57,1.04
				c1.15,0.92,2.61,1.3,4.05,1.47c3.88,0.46,7.94,0.24,11.84,0.21c4.1-0.02,8.21-0.15,12.3-0.52c4.05-0.37,8.08-0.98,12.03-1.95
				c1.1-0.27,2.21-0.63,3.35-0.65c1.08-0.02,2.05,0.37,3.07,0.65c1.84,0.51,3.75,0.54,5.65,0.5c8.77-0.18,17.54-0.3,26.31-0.21
				c9.86,0.1,19.73,0.4,29.58,0.9c0.8,0.04,0.8-1.21,0-1.25c-16.89-0.85-33.81-1.12-50.71-0.8c-2.03,0.04-4.07,0.12-6.1,0.13
				c-2.02,0.01-3.8-0.35-5.74-0.87c-1.83-0.5-3.48-0.16-5.27,0.29c-1.91,0.48-3.83,0.88-5.77,1.21c-8.05,1.35-16.24,1.4-24.38,1.31
				c-2.1-0.02-4.27,0.09-6.35-0.22c-0.89-0.13-1.8-0.36-2.57-0.83c-0.72-0.43-1.13-1.13-1.79-1.62c-1.54-1.12-2.92,0.38-4.15,1.23
				c-1.46,1.01-4.64,2.09-5.18-0.53C609.05,501.74,607.85,502.07,608.01,502.86L608.01,502.86z"/>
		</g>
	</g>
	<g>
		<g>
			<path class="st4" d="M611.55,518.42c0.5,4.05,6.12,3.43,8.99,3.39c5.73-0.08,11.45-0.17,17.18-0.26
				c11.53-0.17,23.07-0.35,34.6-0.52c6.47-0.1,12.94-0.2,19.42-0.3c0.8-0.01,0.81-1.26,0-1.25c-21.49,0.33-42.98,0.65-64.48,0.97
				c-2.99,0.04-5.97,0.09-8.96,0.13c-1.66,0.02-5.22,0.11-5.49-2.17C612.7,517.64,611.45,517.63,611.55,518.42L611.55,518.42z"/>
		</g>
	</g>
	<g>
		<g>
			<path class="st4" d="M683.31,314.15c0.66-3.71,3.33-6.43,6.2-8.67c3.11-2.43,6.48-4.58,9.89-6.57c6.99-4.09,14.43-7.4,22.15-9.84
				c4.3-1.36,8.69-2.44,13.13-3.26c0.79-0.15,0.46-1.35-0.33-1.21c-16.26,3.01-32.42,9.68-45.53,19.85
				c-3.09,2.4-5.99,5.38-6.71,9.37C681.96,314.6,683.17,314.94,683.31,314.15L683.31,314.15z"/>
		</g>
	</g>
	<g>
		<g>
			<path class="st4" d="M746.32,279.11c3.14,0.45,6.29,0,9.16-1.34c0.73-0.34,0.09-1.42-0.63-1.08c-2.54,1.18-5.43,1.62-8.2,1.21
				c-0.34-0.05-0.67,0.08-0.77,0.44C745.8,278.63,745.99,279.06,746.32,279.11L746.32,279.11z"/>
		</g>
	</g>
	<g>
		<g>
			<path class="st4" d="M758.84,279.36c3.3-0.06,6.6-0.21,9.89-0.48c1.6-0.13,3.21-0.29,4.81-0.47c1.8-0.2,3.13-0.14,4.81,0.58
				c2.69,1.15,5.61,0.94,8.47,0.97c3.37,0.04,6.74,0.07,10.12,0.11c0.8,0.01,0.81-1.24,0-1.25c-3.29-0.04-6.58-0.07-9.88-0.11
				c-1.58-0.02-3.16,0.01-4.73-0.08c-1.72-0.09-3.05-0.69-4.63-1.27c-1.29-0.47-2.58-0.38-3.92-0.24c-1.6,0.18-3.2,0.35-4.81,0.48
				c-3.37,0.28-6.75,0.44-10.13,0.5C758.04,278.12,758.04,279.37,758.84,279.36L758.84,279.36z"/>
		</g>
	</g>
	<g>
		<g>
			<path class="st4" d="M747.23,287.34c7.45,0.26,14.91,0.63,22.37,0.68c7.42,0.04,14.83-0.33,22.21-1.1c0.79-0.08,0.8-1.33,0-1.25
				c-7.38,0.77-14.79,1.14-22.21,1.1c-7.46-0.04-14.92-0.42-22.37-0.68C746.42,286.06,746.42,287.31,747.23,287.34L747.23,287.34z"
				/>
		</g>
	</g>
	<g>
		<g>
			<path class="st4" d="M748.88,295.24c0.14,0.77,0.87,1.21,1.64,1.08c0.93-0.15,1.34-1.08,1.63-1.87c-0.4,0-0.8,0-1.21,0
				c1.14,2.83,4.23,3.8,7.07,3.37c1.95-0.3,3.69-1.18,5.56-1.74c1.91-0.58,4.14-0.13,6.11-0.07c8.85,0.25,17.69,0.5,26.54,0.74
				c0.8,0.02,0.8-1.23,0-1.25c-8.02-0.23-16.04-0.45-24.06-0.68c-1.87-0.05-3.75-0.06-5.62-0.19c-1.79-0.12-3.13,0.16-4.81,0.79
				c-2.89,1.08-8,2.62-9.57-1.3c-0.23-0.57-0.99-0.61-1.21,0c-0.06,0.47-0.34,0.73-0.85,0.79
				C749.94,294.12,748.74,294.45,748.88,295.24L748.88,295.24z"/>
		</g>
	</g>
	<g>
		<g>
			<path class="st4" d="M734.32,378.4c-1.81,7.65-3.77,15.27-5.88,22.84c-0.22,0.78,0.99,1.11,1.21,0.33
				c2.11-7.58,4.07-15.19,5.88-22.84C735.71,377.95,734.51,377.62,734.32,378.4L734.32,378.4z"/>
		</g>
	</g>
	<g>
		<g>
			<path class="st4" d="M728.36,408.58c0.8,0,0.81-1.25,0-1.25C727.56,407.33,727.55,408.58,728.36,408.58L728.36,408.58z"/>
		</g>
	</g>
	<g>
		<g>
			<path class="st4" d="M699.33,398.45c6.55-0.52,13.02-1.71,19.33-3.56c0.77-0.23,0.44-1.43-0.33-1.21
				c-6.2,1.82-12.55,3-18.99,3.51C698.54,397.26,698.53,398.51,699.33,398.45L699.33,398.45z"/>
		</g>
	</g>
	<g>
		<g>
			<path class="st4" d="M701.67,404.21c5.31-0.72,10.54-1.9,15.64-3.52c0.76-0.24,0.44-1.45-0.33-1.21
				c-5.1,1.62-10.33,2.8-15.64,3.52C700.55,403.11,700.89,404.32,701.67,404.21L701.67,404.21z"/>
		</g>
	</g>
	<g>
		<g>
			<path class="st4" d="M704.93,411.08c3.8-1.34,7.78-2.06,11.82-2.13c0.8-0.01,0.81-1.26,0-1.25c-4.14,0.07-8.24,0.8-12.15,2.17
				C703.85,410.14,704.17,411.35,704.93,411.08L704.93,411.08z"/>
		</g>
	</g>
	<g>
		<g>
			<path class="st4" d="M538.46,392.43c2.41-0.85,4.7-2.21,6.46-4.07c0.88-0.93,1.59-2.06,1.62-3.38c0.03-1.16-0.38-2.6-0.97-3.6
				c-0.7-1.19-1.92-1.12-3.13-0.99c-1.43,0.15-2.86,0.4-4.25,0.78c-0.99,0.27-2.46,0.59-2.81,1.71c-0.45,1.43,1.47,1.31,2.3,1.19
				c1.32-0.18,3.08-0.71,3.98-1.77c0.97-1.13-0.14-2.37-1.08-3.02c-0.66-0.46-1.29,0.63-0.63,1.08c0.28,0.19,0.72,0.49,0.8,0.83
				c0.1,0.4-0.5,0.65-0.8,0.82c-0.84,0.47-1.79,0.77-2.74,0.86c-0.2,0.02-0.43-0.01-0.62,0.03c0.02-0.01-0.2-0.01-0.2-0.01
				c0.08,0.08,0.17,0.17,0.25,0.25c0.04-0.04,0.08-0.07,0.11-0.11c0.34-0.15,0.64-0.33,1.01-0.45c0.97-0.3,1.95-0.53,2.95-0.71
				c0.94-0.17,1.92-0.34,2.87-0.33c0.99,0.01,1.17,1.02,1.42,1.81c0.28,0.9,0.43,1.83,0.03,2.72c-0.37,0.82-1.04,1.49-1.7,2.08
				c-1.51,1.35-3.29,2.39-5.2,3.06C537.37,391.49,537.7,392.7,538.46,392.43L538.46,392.43z"/>
		</g>
	</g>
	<g>
		<g>
			<path class="st4" d="M534.48,374.69c4.25,0.02,8.5,0.14,12.75,0.33c0.8,0.04,0.8-1.21,0-1.25c-4.25-0.2-8.5-0.31-12.75-0.33
				C533.68,373.44,533.68,374.69,534.48,374.69L534.48,374.69z"/>
		</g>
	</g>
	<g>
		<g>
			<path class="st4" d="M529.38,383.81c-0.68,0.34-0.97,1.12-0.81,1.84c0.19,0.87,0.93,1.39,1.76,1.61
				c1.11,0.29,2.35,0.27,3.49,0.25c1.25-0.02,2.49-0.15,3.72-0.34c-0.2-0.35-0.41-0.7-0.61-1.04c-1.61,1.45-4.19,1.19-5.54,3.07
				c-0.91,1.28-0.54,3.48,1.18,3.84c-0.05-0.38-0.1-0.76-0.15-1.14c-0.4,0.29-0.8,0.58-1.2,0.87c-0.44,0.32-0.38,0.96,0.15,1.14
				c4.48,1.56,9.13,2.55,13.85,2.98c0.8,0.07,0.8-1.18,0-1.25c-4.61-0.42-9.14-1.41-13.52-2.93c0.05,0.38,0.1,0.76,0.15,1.14
				c0.4-0.29,0.8-0.58,1.2-0.87c0.4-0.29,0.42-1.02-0.15-1.14c-0.6-0.13-0.85-0.77-0.74-1.34c0.14-0.77,0.91-1.26,1.57-1.57
				c1.4-0.65,2.9-0.85,4.09-1.92c0.51-0.46-0.05-1.13-0.61-1.04c-1.51,0.24-3.05,0.34-4.58,0.29c-0.64-0.02-1.34-0.01-1.96-0.19
				c-0.39-0.11-1.41-0.8-0.65-1.17C530.73,384.54,530.1,383.46,529.38,383.81L529.38,383.81z"/>
		</g>
	</g>
</g>
<polygon class="st1" points="265.47,325 265.47,325 265.47,325 "/>
<path class="st1" d="M288.77,288.25c0-0.03,0.01-0.05,0.01-0.08c-0.77,3.46-1.75,6.85-2.93,10.11
	C287.11,295.17,288.12,291.82,288.77,288.25z"/>
<path class="st1" d="M206.6,316.15c0.01,0.01,0.03,0.02,0.03,0.02l0,0C206.62,316.16,206.61,316.15,206.6,316.15z"/>
<path class="st1" d="M712,293.21l-0.37-3.08C711.67,290.74,711.76,291.83,712,293.21z"/>
<path class="st1" d="M774.38,222.45l-69.79,8.29l69.81-8.29C774.39,222.45,774.38,222.45,774.38,222.45z"/>
<path class="st1" d="M290.5,260.19c-0.03-1.69-0.08-3.34-0.15-4.95c-0.02-0.1-0.04-0.21-0.05-0.31L290.5,260.19z"/>
<path class="st4" d="M482.05,401.54l0.16-0.1l0.02,0.04l40.39-14.47c6.61-2.37,12.6-6.2,17.53-11.2l8.09-8.22
	c5.28-5.37,9.22-11.91,11.5-19.09l1.3-4.09c0.91-2.85,0.11-6.09-2.25-7.93c-1.76-1.37-4.18-1.92-7.14,0.58
	c-12.34,10.41-28.77,20.13-37.29,20.59c-28.9,1.54-54.41,26.96-60.78,34.97c-0.03,0.04-0.05,0.09-0.09,0.14l27.22,9.87
	C481.23,402.15,481.7,401.76,482.05,401.54z"/>
<path class="st5" d="M331.4,494.51c-0.03-0.05-0.05-0.09-0.08-0.13L331.4,494.51z"/>
<path class="st5" d="M369.13,551.73c-5.55-6.32-13.94-17.17-24.32-34.63l8.49,14.28c0,0,6.7,17.47,21.87,27.01
	C373.34,557.06,371.27,554.71,369.13,551.73z"/>
<path class="st5" d="M332.03,495.57c-0.01-0.01-0.02-0.03-0.02-0.04L332.03,495.57z"/>
<path class="st1" d="M376.57,559.23c0,0-0.02-0.01-0.05-0.04c-0.46-0.26-0.91-0.53-1.35-0.8
	C375.66,558.74,376.13,559.03,376.57,559.23z"/>
<path class="st6" d="M376.57,559.23c0,0-0.02-0.01-0.05-0.04c-0.46-0.26-0.91-0.53-1.35-0.8
	C375.66,558.74,376.13,559.03,376.57,559.23z"/>
<path class="st1" d="M330.98,493.81c0,0,0.1,0.17,0.33,0.56L330.98,493.81L330.98,493.81z"/>
<path class="st6" d="M330.98,493.81c0,0,0.1,0.17,0.33,0.56L330.98,493.81L330.98,493.81z"/>
<path class="st1" d="M344.82,517.09C344.82,517.09,344.82,517.09,344.82,517.09l-12.79-21.52
	C333.65,498.3,337.41,504.62,344.82,517.09z"/>
<path class="st6" d="M344.82,517.09C344.82,517.09,344.82,517.09,344.82,517.09l-12.79-21.52
	C333.65,498.3,337.41,504.62,344.82,517.09z"/>
<path class="st1" d="M332,495.52l-0.61-1.02C331.55,494.76,331.75,495.1,332,495.52z"/>
<path class="st6" d="M332,495.52l-0.61-1.02C331.55,494.76,331.75,495.1,332,495.52z"/>
<path class="st5" d="M353.39,519.05c-12.88-45.99-23.33-73.53-30.47-89.48c3.04,10.66,7.23,25.78,8.45,32.23
	c2.83,14.9,1.6,25.28-0.39,32.01l0.33,0.56c0.02,0.04,0.05,0.09,0.08,0.13l0.61,1.02c0.01,0.01,0.02,0.03,0.02,0.04l12.79,21.53
	c10.37,17.46,18.77,28.32,24.32,34.63C362.93,543.07,356.19,529.06,353.39,519.05z"/>
<path class="st6" d="M353.39,519.05c-12.88-45.99-23.33-73.53-30.47-89.48c3.04,10.66,7.23,25.78,8.45,32.23
	c2.83,14.9,1.6,25.28-0.39,32.01l0.33,0.56c0.02,0.04,0.05,0.09,0.08,0.13l0.61,1.02c0.01,0.01,0.02,0.03,0.02,0.04l12.79,21.53
	c10.37,17.46,18.77,28.32,24.32,34.63C362.93,543.07,356.19,529.06,353.39,519.05z"/>
<path class="st5" d="M369.13,551.73c2.14,2.98,4.21,5.33,6.04,6.66c0.44,0.28,0.9,0.54,1.35,0.8
	C376.16,558.9,373.55,556.75,369.13,551.73z"/>
<path class="st6" d="M369.13,551.73c2.14,2.98,4.21,5.33,6.04,6.66c0.44,0.28,0.9,0.54,1.35,0.8
	C376.16,558.9,373.55,556.75,369.13,551.73z"/>
<path class="st7" d="M344.54,721.34c-10.23,1.8-43.02,7.49-53.71,8.45c-12.78,1.15-68.38,3-109.71,4.28
	c-5.18,15.23-6.53,31.9-6.94,47.75c-0.53,20.32,1.58,40.5,2.25,60.78c0.53,16.02,0.59,32.05,0.65,48.09
	c6.43,5.82,13.08,11.33,19.96,16.5c11.37,8.6,23.34,16.26,35.81,23.08c4.33-45.23,10.65-107.92,15.11-151.73
	c-2.33,22.9-1.31-29.47-0.64-29.72c5.81-2.16,81.92,157.11,88.79,177.51c4.74,14.06,7.76,28.24,10.12,42.6
	c12.97,2.39,26.13,4.28,39.43,5.73c-7.77-45.06-32.3-192.27-32.3-192.27L344.54,721.34z"/>
<path class="st7" d="M177.08,890.69c-0.07-16.04-0.12-32.07-0.65-48.09c-0.67-20.28-2.78-40.46-2.25-60.78
	c0.42-15.85,1.76-32.52,6.94-47.75c-9.82,0.3-18.83,0.57-26.27,0.79l0,0l-0.02,0c-3.13,0.09-5.98,0.17-8.5,0.25l0.51,10.64
	l-2.27,0.2c-0.24,2.18-0.5,4.9-0.47,5.22l2.98,32.34c0.02,0.23,0.02,0.46,0,0.7l-1.52,18.33c2.16,20.62,4.55,42.81,6.75,63.04
	C160.17,874.47,168.43,882.86,177.08,890.69z"/>
<path class="st6" d="M177.08,890.69c-0.07-16.04-0.12-32.07-0.65-48.09c-0.67-20.28-2.78-40.46-2.25-60.78
	c0.42-15.85,1.76-32.52,6.94-47.75c-9.82,0.3-18.83,0.57-26.27,0.79l0,0l-0.02,0c-3.13,0.09-5.98,0.17-8.5,0.25l0.51,10.64
	l-2.27,0.2c-0.24,2.18-0.5,4.9-0.47,5.22l2.98,32.34c0.02,0.23,0.02,0.46,0,0.7l-1.52,18.33c2.16,20.62,4.55,42.81,6.75,63.04
	C160.17,874.47,168.43,882.86,177.08,890.69z"/>
<path class="st7" d="M336.11,926.32c-6.87-20.4-82.98-179.67-88.79-177.51c-0.67,0.25-1.69,52.62,0.64,29.72
	c7.18,19.48,48.75,132.31,67.59,183.66c10.08,2.58,20.31,4.82,30.68,6.73C343.87,954.56,340.85,940.38,336.11,926.32z"/>
<path class="st6" d="M336.11,926.32c-6.87-20.4-82.98-179.67-88.79-177.51c-0.67,0.25-1.69,52.62,0.64,29.72
	c7.18,19.48,48.75,132.31,67.59,183.66c10.08,2.58,20.31,4.82,30.68,6.73C343.87,954.56,340.85,940.38,336.11,926.32z"/>
<path class="st5" d="M157.19,548.82c-0.74,18.54-3.24,40.8-6.46,63.28l0.01-0.04C155.13,589.57,156.92,568.14,157.19,548.82z"/>
<rect x="330.98" y="493.81" class="st5" width="0" height="0"/>
<path class="st5" d="M480.69,402.63l-27.22-9.87l-1.75-0.63c0,0-57.69,82.87-62.94,96.42c0,0-9.09,15.25-11.59,24.18
	c-0.37,2.68-0.59,4.37-0.59,4.37c-0.14-1.1,0.1-2.61,0.59-4.37c1.24-8.96,4.22-29.14,6.63-35.75l0.01,0.01
	c-10.97-25.63-36.85-86.25-43.22-102.31c-3.09-7.79-9.78-12.56-16.89-15.47l0.01-0.1c-11.4-4.56-22.74-8.03-33.88-10.62
	c-2.58,15.29-6.47,26.26-12.7,32.53l-10.73-25.6c0.53,16.8-13.7,21.3-30.48,21.83c-12.11,0.38-23.86-7.88-29.66-18.82
	c0.65,10.68,1.96,22.58,1.96,22.58c-15.12-5.63-23.46-17.45-28.49-34.03c-20.13,3.77-34.85,8.7-41.4,11.11
	c-41.07,10.15-36.55,146.2-36.55,146.2c-1.63,13.24-9.36,74.98-9.36,74.98l19.3,169.52l1.56-0.14l1.81-4.43l0.04,0.01l0.03-0.18
	c0.44-2.51,3.09-3.98,5.43-2.99c5.93,2.51,12.61,3.57,19.15,3.07c-0.3-3.35-0.54-6.31-0.73-8.82c-3.06,0.09-4.77,0.13-4.77,0.13
	s1.9-35.57,8.51-74.2l0-0.03v0l-3.94-81.94l13.43-88.38l0.26-3.44c1.79,13.85,3.24,25.9,4.05,34.19c0.34,3.44,0.56,6.25,0.66,8.25
	c0.26,5.67,0.22,12.04-0.06,18.92c-0.27,19.32-2.05,40.75-6.45,63.24l-0.01,0.04c-2.25,15.7-4.84,31.5-7.44,46.21
	c-0.17,0.97-0.34,1.94-0.5,2.91l0.67,13.93c2.11-11.8,4.58-21.04,6.74-27.79c3.57,0.07,7.14,0.13,10.71,0.2l-6.04,87.3
	c7.44-0.22,16.45-0.49,26.27-0.79c41.33-1.27,96.92-3.13,109.71-4.28c10.69-0.96,43.48-6.65,53.71-8.45
	c1.95-0.34,3.09-0.55,3.09-0.55l-21.6-216.96c0,0,2.89-3.04,4.96-10.03c1.99-6.72,3.22-17.11,0.39-32.01
	c-1.22-6.45-5.41-21.57-8.45-32.23c7.14,15.95,17.58,43.48,30.47,89.48c2.8,10.01,9.54,24.02,15.75,32.68
	c4.41,5.02,7.02,7.17,7.39,7.47c5.65,3.26,12.39,5.41,20.33,5.23c30.62-0.7,84.45-161.57,84.45-161.57L480.69,402.63z"/>
<path class="st5" d="M146.34,735.11c2.52-0.07,5.37-0.16,8.5-0.25L146.34,735.11L146.34,735.11z"/>
<polygon class="st4" points="206.62,316.17 206.62,316.17 206.62,316.17 206.62,316.17 206.62,316.17 "/>
<path class="st4" d="M266.43,355.42l-0.36-11.23l-0.46-14.42c-3.16,8.36-11.93,9.6-25.2,7.38c-14.85-2.49-23.11-8.03-33.83-18.32
	l-0.3,24.44c0,0,0,0,0,0c-0.54,2.64-0.39,8.67,0,15.17c5.8,10.94,17.56,19.2,29.66,18.82C252.73,376.72,266.96,372.21,266.43,355.42
	z"/>
<polygon class="st1" points="265.47,325 265.47,325 265.47,325 265.47,325 "/>
<polygon class="st8" points="265.47,325 265.47,325 265.47,325 265.47,325 "/>
<path class="st4" d="M265.62,329.77l-0.15-4.77h0l0,0c-3.92,2.19-8.26,3.52-12.99,3.78c-19.32,1.04-34.92-3.92-45.85-12.61l0,0
	l-0.03,2.65c10.71,10.29,18.98,15.83,33.83,18.32C253.69,339.37,262.46,338.13,265.62,329.77z"/>
<path class="st8" d="M265.62,329.77l-0.15-4.77h0l0,0c-3.92,2.19-8.26,3.52-12.99,3.78c-19.32,1.04-34.92-3.92-45.85-12.61l0,0
	l-0.03,2.65c10.71,10.29,18.98,15.83,33.83,18.32C253.69,339.37,262.46,338.13,265.62,329.77z"/>
<polygon class="st7" points="266.07,344.18 266.07,344.18 265.62,329.77 265.62,329.77 "/>
<polygon class="st7" points="266.07,344.18 266.43,355.42 266.07,344.18 "/>
<polygon class="st7" points="265.62,329.77 265.62,329.77 265.47,325 265.47,325 "/>
<path class="st7" d="M206.29,318.54c0.1,0.1,0.2,0.19,0.3,0.29l0.03-2.65L206.29,318.54z"/>
<polygon class="st7" points="265.47,325 265.62,329.77 265.62,329.77 265.47,325 "/>
<path class="st7" d="M288.78,288.17c1.52-6.87,2.2-14.02,1.98-20.95l-0.27-7.04C290.68,269.41,290.34,279.53,288.78,288.17z"/>
<path class="st7" d="M265.47,325c9.24-5.16,16.13-15.07,20.38-26.72C279.12,314.98,265.56,324.94,265.47,325z"/>
<polygon class="st4" points="188.4,268.65 188.4,268.65 188.4,268.65 "/>
<path class="st4" d="M188.57,272.6c-0.14-2.71-0.18-3.94-0.18-3.95l0.12,3.89C188.54,272.56,188.55,272.58,188.57,272.6z"/>
<path class="st7" d="M290.3,254.92c0.02,0.1,0.04,0.21,0.05,0.31c-0.06-1.54-0.13-3.04-0.21-4.48L290.3,254.92z"/>
<path class="st7" d="M259.96,168.55c-20.02-8.31-43-6.01-61.35,5.52c-16.45,10.33-33.74,40.11-30.29,75.67
	c3.84,39.5,4.19,73.33,11.44,97.25c5.03,16.58,13.37,28.4,28.49,34.03c0,0-1.31-11.91-1.96-22.58c-0.39-6.49-0.54-12.53,0-15.17
	c0,0,0,0,0,0l0.3-24.44c-0.1-0.1-0.2-0.19-0.3-0.29l0.34-2.37v0c0,0-0.02-0.02-0.03-0.02c-6.9-5.49-11.94-12.47-14.87-20.38
	c-1.23-2.79-2.08-5.65-2.27-8.42c0-0.05-0.01-0.1-0.01-0.15c-0.37-2.21-0.62-4.47-0.69-6.77l-0.25-7.88
	c-8.06-8.46-8.4-24.92-4.42-27.85c1.11-0.81,2.31-0.98,3.52-0.74c0.32,0.06,0.64,0.16,0.96,0.27c0.23,0.08,0.46,0.18,0.69,0.29
	l-0.25,6.95l0.25,4.12c0,0,1.96-3.16,4.38-7.77c3.96-7.56,9.15-19.04,8.9-26.92c0,0,72.07-8.74,84.98,23.86
	c1.26,3.19,2.15,6.63,2.77,10.16l-0.16-4.17c0.08,1.45,0.15,2.94,0.21,4.48c0.06,1.61,0.11,3.27,0.15,4.95l0.27,7.04
	c0.22,6.92-0.46,14.08-1.98,20.95c0,0.03-0.01,0.05-0.01,0.08c-0.65,3.56-1.66,6.92-2.92,10.03c-4.25,11.65-11.14,21.56-20.38,26.72
	c0,0,0,0,0,0l0.15,4.77c0,0,0,0,0,0l0.46,14.42l0.36,11.23l10.73,25.6c6.24-6.27,10.12-17.24,12.7-32.53
	c4.28-25.33,4.96-62.5,6.77-109.81C298.16,198.84,278.26,176.14,259.96,168.55z"/>
<path class="st4" d="M290.5,260.19l-0.2-5.27c-0.62-3.52-1.51-6.97-2.77-10.16c-12.9-32.59-84.98-23.86-84.98-23.86
	c0.25,7.89-4.93,19.36-8.9,26.92c-2.42,4.61-4.38,7.77-4.38,7.77l-0.25-4.12l0.25-6.95c-0.23-0.11-0.46-0.21-0.69-0.29
	c-0.32-0.12-0.64-0.21-0.96-0.27c-1.21-0.24-2.41-0.07-3.52,0.74c-3.98,2.92-3.64,19.39,4.42,27.85l-0.12-3.89l0,0v0l0,0
	c0,0.01,0.04,1.24,0.18,3.95c-0.02-0.02-0.04-0.04-0.05-0.06l0.25,7.88c0.07,2.3,0.31,4.56,0.69,6.77c0,0.05,0.01,0.1,0.01,0.15
	c0.19,2.77,1.04,5.63,2.27,8.42c2.93,7.91,7.97,14.89,14.87,20.38c0.01,0.01,0.02,0.01,0.03,0.02c0,0,0,0,0,0
	c10.93,8.69,26.53,13.65,45.85,12.61c4.74-0.25,9.07-1.59,12.99-3.78c0,0,0,0,0,0c0,0,0,0,0,0c0.08-0.06,13.65-10.02,20.38-26.72
	c1.19-3.26,2.17-6.65,2.93-10.11C290.34,279.53,290.68,269.41,290.5,260.19z"/>
<path class="st4" d="M133.97,798.77c0,0.07,0,0.15,0,0.22c-0.1,4.93,0.58,11.63,3.61,15.85c2.13,2.97,6.85,1.56,7.15-2.08
	l0.85-10.24c-2.29-21.91-4.32-42.05-5.6-56.18l-26.66,2.32l-14.79,36.2c6.33,12.56,13.17,24.65,20.52,36.2
	c2.16-9.85,5.27-18.63,7.22-23.65C127.85,793.35,133.99,794.41,133.97,798.77z"/>
<path class="st4" d="M145.58,802.52l1.52-18.33c0.02-0.23,0.02-0.46,0-0.7l-2.98-32.34c-0.03-0.32,0.23-3.03,0.47-5.22l-4.61,0.4
	C141.25,760.48,143.28,780.61,145.58,802.52z"/>
<path class="st1" d="M383.84,476.99c3.05,7.13,4.95,11.55,4.95,11.55L383.84,476.99z"/>
<path class="st6" d="M383.84,476.99c3.05,7.13,4.95,11.55,4.95,11.55L383.84,476.99z"/>
<path class="st5" d="M377.2,512.72c2.49-8.93,11.59-24.18,11.59-24.18s-1.9-4.42-4.95-11.55l-0.01-0.01
	C381.43,483.58,378.45,503.77,377.2,512.72z"/>
<path class="st6" d="M377.2,512.72c2.49-8.93,11.59-24.18,11.59-24.18s-1.9-4.42-4.95-11.55l-0.01-0.01
	C381.43,483.58,378.45,503.77,377.2,512.72z"/>
<path class="st5" d="M376.61,517.09c0,0,0.22-1.69,0.59-4.37C376.71,514.48,376.47,515.99,376.61,517.09z"/>
<path class="st6" d="M376.61,517.09c0,0,0.22-1.69,0.59-4.37C376.71,514.48,376.47,515.99,376.61,517.09z"/>
<path class="st7" d="M154.86,734.86L154.86,734.86c-0.01,0-0.01,0-0.02,0L154.86,734.86z"/>
<path class="st6" d="M154.86,734.86L154.86,734.86c-0.01,0-0.01,0-0.02,0L154.86,734.86z"/>
<path class="st6" d="M154.86,734.86L154.86,734.86c-0.01,0-0.01,0-0.02,0L154.86,734.86z"/>
<path class="st6" d="M156.59,521.65c0.34,3.44,0.56,6.25,0.66,8.25c0.26,5.67,0.41,12.05-0.06,18.92c-1.41,20.95-2.97,40-6.45,63.24
	l-0.01,0.04c-2.25,15.7-4.84,31.5-7.44,46.21c-0.17,0.97-0.34,1.94-0.5,2.91l0.67,13.93c2.11-11.8,4.58-21.04,6.74-27.79
	c3.57,0.07,7.14,0.13,10.71,0.2l9.09-131.28c0.36-5.22-0.74-10.47-3.3-15.03c-5.13-9.16-8.05-19.12-8.05-29.83v-25.22l-1.89-14.52
	l-4.21,55.81C154.09,497.32,154.97,507,156.59,521.65z"/>
<path class="st5" d="M150.19,647.36c-2.16,6.75-4.63,15.99-6.74,27.79l2.89,59.95l8.5-0.24c0.01,0,0.01,0,0.02,0l6.04-87.3
	C157.33,647.49,153.76,647.43,150.19,647.36z"/>
<path class="st6" d="M150.19,647.36c-2.16,6.75-4.63,15.99-6.74,27.79l2.89,59.95l8.5-0.24c0.01,0,0.01,0,0.02,0l6.04-87.3
	C157.33,647.49,153.76,647.43,150.19,647.36z"/>
<path class="st5" d="M139.78,744.14c0.14-0.01,0.27-0.01,0.41-0.02c2.84-0.25,4.76-0.95,4.76-0.95c-0.06,0.19-0.21,1.38-0.36,2.77
	l2.27-0.2l-0.51-10.64c-2.91,0.08-5.37,0.15-7.29,0.21C139.24,737.83,139.49,740.79,139.78,744.14z"/>
<path class="st5" d="M134.28,735.45l8.51-74.2C136.18,699.89,134.28,735.45,134.28,735.45z"/>
<path class="st5" d="M134.28,735.45c0,0,1.72-0.05,4.77-0.13c0,0,0,0,0,0L134.28,735.45z"/>
<path class="st5" d="M139.05,735.31C139.05,735.31,139.05,735.31,139.05,735.31c1.92-0.05,4.39-0.12,7.29-0.21l0,0L139.05,735.31z"
	/>
<path class="st5" d="M139.78,744.14c-6.54,0.5-13.22-0.56-19.15-3.07c-2.34-0.99-4.99,0.48-5.43,2.99l-0.03,0.18l-0.04-0.01
	l-1.81,4.43l26.66-2.32C139.91,745.6,139.84,744.86,139.78,744.14z"/>
<path class="st5" d="M140.19,744.12c-0.14,0.01-0.27,0.01-0.41,0.02c0.06,0.72,0.13,1.46,0.2,2.21l4.61-0.4
	c0.15-1.4,0.3-2.58,0.36-2.77C144.95,743.17,143.03,743.87,140.19,744.12z"/>
<path class="st5" d="M142.78,661.22L142.78,661.22l0,0.03C142.78,661.24,142.78,661.23,142.78,661.22L142.78,661.22z"/>
<path class="st5" d="M138.59,726.78c0.44-20.77,2.41-37.93,4.86-51.63l-0.67-13.93c0,0.01,0,0.02,0,0.03l-8.51,74.2l4.77-0.14
	C138.73,731.11,138.56,728.17,138.59,726.78z"/>
<path class="st5" d="M139.05,735.31l7.29-0.21l-2.89-59.95c-2.45,13.7-4.42,30.85-4.86,51.63
	C138.56,728.17,138.73,731.11,139.05,735.31z"/>
<path class="st5" d="M884.15,791.19l-0.03-0.9c0.01,0.56,0.01,1.12,0.02,1.69L884.15,791.19z"/>
<path class="st5" d="M882.98,841.23l0.38-16.13c-0.08,2.62-0.16,5.22-0.21,7.79C883.08,835.72,883.03,838.48,882.98,841.23z"/>
<polygon class="st6" points="880.15,979.2 880.15,979.19 880.15,979.19 "/>
<path class="st5" d="M880.15,979.19L880.15,979.19c0,0,0-0.01,0-0.03C880.15,979.18,880.15,979.19,880.15,979.19z"/>
<path class="st6" d="M880.15,979.19L880.15,979.19c0,0,0-0.01,0-0.03C880.15,979.18,880.15,979.19,880.15,979.19z"/>
<path class="st5" d="M882.98,841.23c0.05-2.75,0.1-5.52,0.16-8.34c0.06-2.57,0.13-5.17,0.21-7.79l0.78-33.12
	c0-0.57-0.01-1.13-0.02-1.69l-1.73-44.45c-9.31,0-18.82,0-28.46,0c8.84,17.69,15.24,72.3,19.5,124.25c3.02-2.03,6.03-4.09,9.02-6.2
	L882.98,841.23z"/>
<polygon class="st1" points="879.35,675.18 879.36,675.18 871.79,605.09 871.79,605.11 "/>
<polygon class="st8" points="879.35,675.18 879.36,675.18 871.79,605.09 871.79,605.11 "/>
<path class="st1" d="M688.7,602.48c0,0,1.47,0.13,3.98,0.33l-0.01-0.33H688.7z"/>
<path class="st9" d="M688.7,602.48c0,0,1.47,0.13,3.98,0.33l-0.01-0.33H688.7z"/>
<path class="st7" d="M783.66,551.88l-0.02,0.11l19.19-0.19l60.2-4.65l2.01-27.41c-0.72,1.1-1.46,2.17-2.24,3.2
	c-6.74,10.58-14.68,16.87-34.09,20.14c-19.22,3.23-39.7,4.23-60.01,4.65l0.22,0.16L783.66,551.88z"/>
<path class="st9" d="M783.66,551.88l-0.02,0.11l19.19-0.19l60.2-4.65l2.01-27.41c-0.72,1.1-1.46,2.17-2.24,3.2
	c-6.74,10.58-14.68,16.87-34.09,20.14c-19.22,3.23-39.7,4.23-60.01,4.65l0.22,0.16L783.66,551.88z"/>
<path class="st7" d="M873.76,546.32c0,0,1.02-31.78,1.56-47.43c-0.06,0.37-0.15,0.74-0.26,1.11l-1.44,46.32L873.76,546.32z"/>
<path class="st9" d="M873.76,546.32c0,0,1.02-31.78,1.56-47.43c-0.06,0.37-0.15,0.74-0.26,1.11l-1.44,46.32L873.76,546.32z"/>
<path class="st7" d="M740.97,598.46c1.12-4.75-0.87-9.55,5.35-9.85c36.09-1.76,76.19,13.4,108.56,27.9l5.27,2.8l-1.32-14.88
	l0.6-8.21c-32.54-3.72-75.42-12.82-79.95-14.39l-0.01,0.09l-15.22-2.07c-3.21,1.52-6.85,2.14-10.57,2.18l-12.7,0.82
	c-3.71,0.24-7.42,0.07-11.08-0.49l2.56,13c0,4.95-4.07,7.12-9.08,7.12h-30.7l0.01,0.33c7.31,0.59,23.53,1.85,38.57,2.62
	C735.72,605.65,739.95,602.81,740.97,598.46z"/>
<path class="st7" d="M872.03,597.41c-3.93-0.27-8.17-0.68-12.6-1.19l-0.6,8.21l1.32,14.88l13.98,7.44l-2.33-21.64l0-0.02l0-0.01
	L872.03,597.41z"/>
<path class="st7" d="M873.62,546.33l1.44-46.32c-0.15,0.51-0.35,1.02-0.63,1.53c-1.1,2.04-2.11,3.97-3.09,5.84
	c-1.68,4.31-3.8,8.52-6.31,12.36l-2.01,27.41L873.62,546.33z"/>
<path class="st9" d="M873.62,546.33l1.44-46.32c-0.15,0.51-0.35,1.02-0.63,1.53c-1.1,2.04-2.11,3.97-3.09,5.84
	c-1.68,4.31-3.8,8.52-6.31,12.36l-2.01,27.41L873.62,546.33z"/>
<path class="st4" d="M778.86,581.61l-1.46-0.3C777.85,581.44,778.33,581.55,778.86,581.61z"/>
<polygon class="st4" points="714.95,578.67 714.95,578.67 714.95,578.67 "/>
<path class="st4" d="M722.36,544.06l0.04-0.16c-0.04-0.1-0.09-0.19-0.13-0.3L722.36,544.06z"/>
<path class="st4" d="M820.43,256.58c-1.28-10.8-4.73-10.71-8.21-10.3c-4.7,0.56-7.07,8.38-7.07,8.38l4.32,30.57
	C812.19,285.03,823.52,282.65,820.43,256.58z"/>
<path class="st4" d="M725.47,325.34c-1.64-2.01-3.92-4.95-5.71-7.71C721.43,320.38,723.34,322.96,725.47,325.34z"/>
<path class="st4" d="M714.1,304.73c-0.09-0.32-0.18-0.64-0.27-0.96C713.92,304.1,714.01,304.42,714.1,304.73z"/>
<path class="st4" d="M714.42,305.76c0.82,2.65,1.83,5.2,3.03,7.64c-0.08-0.19-0.16-0.38-0.22-0.56
	C716.07,310.5,715.15,308.1,714.42,305.76z"/>
<path class="st4" d="M745.95,339.56l0,0.02c0.05,0.01,0.1,0.02,0.15,0.03C746.05,339.6,746,339.58,745.95,339.56z"/>
<path class="st4" d="M796.11,255.74l-3.19-18.23c0,0-0.49-17.19-18.53-15.06l-69.81,8.29l7.05,59.37c0-0.03,0-0.05,0-0.08
	c-0.01-0.3-0.02-0.46-0.02-0.46s0,0.17,0.02,0.46c0,0.03,0,0.06,0.01,0.1l0.37,3.08c0.69,3.94,2.61,10.31,7.97,15.08
	c3.05-4.98,8.23-8.61,14.52-9.36l14.41-1.71c5.22-0.62,10.2,0.84,14.09,3.72c3.06,2.26,5.46,5.39,6.79,9.07
	c7.99-2.55,14.77-4.97,19.5-11.09C794.84,291.73,797.57,279.42,796.11,255.74z"/>
<path class="st4" d="M783.82,339.19c0.05-0.03,0.11-0.06,0.16-0.09l-0.16,0.06C783.82,339.17,783.82,339.18,783.82,339.19z"/>
<g>
	<path class="st5" d="M777.35,796l9.58-0.43l12.84,116.1c25.32-11.84,49.88-25.6,73.65-41.58c-4.26-51.95-10.67-106.56-19.5-124.25
		c-55.23,0.01-115.05,0.08-168.37,0.64l-1.37,53.71l7.47,149.95c26.17-6.78,51.67-14.98,76.48-24.82L777.35,796z"/>
	<path class="st6" d="M882.98,841.23c0.05-2.75,0.1-5.52,0.16-8.34c0.06-2.57,0.13-5.17,0.21-7.79l0.78-33.12
		c0-0.57-0.01-1.13-0.02-1.69l-1.73-44.45c-9.31,0-18.82,0-28.46,0c8.84,17.69,15.24,72.3,19.5,124.25c3.02-2.03,6.03-4.09,9.02-6.2
		L882.98,841.23z"/>
	<path class="st4" d="M614.92,790.53c-0.16,0.58-0.2,1.18-0.1,1.77l5.41,31.33c0.11,0.62,0.36,1.2,0.73,1.7l9.97,13.37
		c0.69,0.92,1.73,1.51,2.87,1.59c2.86,0.22,7.93-0.26,7.44-6.46c-1.27-16.1,2.81-34.06,5.02-42.3c1.13-4.22,7.34-3.83,7.8,0.51
		c0.01,0.07,0.01,0.15,0.02,0.22c0.44,4.91,1.85,11.5,5.32,15.36c2.44,2.72,6.98,0.81,6.88-2.85l-0.76-28.66
		c-0.01-0.23-0.03-0.46-0.08-0.69l-5.18-25.36l-31.98-6.36L614.92,790.53z"/>
	<path class="st7" d="M927.76,608.33c13.43-0.09,24.37-11.14,23.48-24.48C952.13,597.19,941.19,608.24,927.76,608.33z"/>
	<polygon class="st7" points="639.55,602.48 626.52,743.36 628.3,743.71 660.28,750.07 661.08,750.23 686.77,602.48 	"/>
	<path class="st7" d="M879.5,675.18h-0.14h-0.01l-7.56-70.07l2.33,21.64l-13.98-7.44l-5.27-2.8c-32.36-14.5-72.46-29.66-108.56-27.9
		c-6.22,0.3-4.23,5.1-5.35,9.85c-1.03,4.35-5.26,7.19-9.73,6.96c-15.05-0.77-31.26-2.02-38.57-2.62l0.03,1.45l-5.35,70.92h-0.08
		l-7.11,71.37c1.78-0.02,3.58-0.04,5.37-0.06c53.33-0.56,113.15-0.63,168.37-0.64c9.65,0,19.16,0,28.46,0c0.05,0,0.1,0,0.15,0
		c1.54,0,3.08,0,4.61,0L879.5,675.18z"/>
	<path class="st7" d="M929.14,471.39c-1.02-11.19-2.18-22.32-3.81-33.32l23.12,130.16l-28.99-163.24l-0.06-0.01
		c-2.38-6.18-11.2-23.85-35.77-30.01l-70.96-25.77l1.55,16.92l-22.79,13.88c-14.44,8.79-33.12,5.87-44.19-6.91l-2.24-2.59
		l0.51-16.53l-57.83,21c-24.58,6.15-33.39,23.83-35.77,30.01l-0.06,0.01l-6.14,105.04l62.6,0.1c5.02,0,9.09,3.75,9.09,8.71
		l2.26,11.49l5.19-0.03c2.8-0.02,5.58,0.49,8.2,1.49l25.27,9.66c2.32,0.88,4.51,2.06,6.52,3.51l3.86,2.77
		c20.31-0.42,40.79-1.42,60.01-4.65c19.41-3.26,27.35-9.56,34.09-20.14c0.78-1.03,1.53-2.1,2.24-3.2c2.51-3.84,4.63-8.05,6.31-12.36
		c0.98-1.87,1.99-3.8,3.09-5.84c0.28-0.52,0.48-1.03,0.63-1.53c0.11-0.37,0.2-0.75,0.26-1.11c-0.54,15.65-1.56,47.43-1.56,47.43
		l1.84-55.02l8.03,54.86l-9.87,0.16l-0.14,0.01l-10.59,0.82l-60.2,4.65l-19.19,0.19l-4.16,29.83c4.53,1.57,47.41,10.67,79.95,14.39
		c4.43,0.51,8.67,0.91,12.6,1.19c0.79,0.06,1.58,0.11,2.34,0.15c22.03,1.28,55.08,4.51,62.16-23.01c3.58-13.9,1.35-29.85-0.47-43.83
		C933.5,510.94,930.96,491.27,929.14,471.39z M688.7,510.09l5.22-61.97l1.11,61.81L688.7,510.09z"/>
	<path class="st1" d="M927.76,608.33c-0.45,0-0.9-0.01-1.35-0.03C926.87,608.32,927.32,608.33,927.76,608.33z"/>
	<path class="st9" d="M927.76,608.33c-0.45,0-0.9-0.01-1.35-0.03C926.87,608.32,927.32,608.33,927.76,608.33z"/>
	<path class="st7" d="M929.14,471.39c1.82,19.88,4.36,39.55,6.94,59.34c1.82,13.98,4.04,29.93,0.47,43.83
		c-7.08,27.52-40.13,24.28-62.16,23.01c-0.77-0.04-1.55-0.1-2.34-0.15l-0.24,7.68l0,0.01l0.14-4.15l53.11,7.26
		c0.46,0.05,0.91,0.08,1.37,0.1c0.45,0.02,0.9,0.03,1.35,0.03c13.43-0.09,24.37-11.14,23.48-24.48l-2.81-15.63l0.01,0l-23.12-130.16
		C926.95,449.07,928.11,460.2,929.14,471.39z"/>
	<path class="st9" d="M929.14,471.39c1.82,19.88,4.36,39.55,6.94,59.34c1.82,13.98,4.04,29.93,0.47,43.83
		c-7.08,27.52-40.13,24.28-62.16,23.01c-0.77-0.04-1.55-0.1-2.34-0.15l-0.24,7.68l0,0.01l0.14-4.15l53.11,7.26
		c0.46,0.05,0.91,0.08,1.37,0.1c0.45,0.02,0.9,0.03,1.35,0.03c13.43-0.09,24.37-11.14,23.48-24.48l-2.81-15.63l0.01,0l-23.12-130.16
		C926.95,449.07,928.11,460.2,929.14,471.39z"/>
	<path class="st9" d="M740.97,598.46c1.12-4.75-0.87-9.55,5.35-9.85c36.09-1.76,76.19,13.4,108.56,27.9l5.27,2.8l-1.32-14.88
		l0.6-8.21c-32.54-3.72-75.42-12.82-79.95-14.39l-0.01,0.09l-15.22-2.07c-3.21,1.52-6.85,2.14-10.57,2.18l-12.7,0.82
		c-3.71,0.24-7.42,0.07-11.08-0.49l2.56,13c0,4.95-4.07,7.12-9.08,7.12h-30.7l0.01,0.33c7.31,0.59,23.53,1.85,38.57,2.62
		C735.72,605.65,739.95,602.81,740.97,598.46z"/>
	<path class="st9" d="M872.03,597.41c-3.93-0.27-8.17-0.68-12.6-1.19l-0.6,8.21l1.32,14.88l13.98,7.44l-2.33-21.64l0-0.02l0-0.01
		L872.03,597.41z"/>
	<g>
		<g id="XMLID_1_">
			<g>
				<path class="st4" d="M778.06,341.7c8.04-4.44,16.19-12.53,22.6-26.78c0.01-0.01,0.02-0.02,0.02-0.03
					c3.26-4.1,5.41-8.06,6.82-11.7l-0.32,4.03l1.37,5.25l1.17,4.46l2.95,32.27l1.54,16.92l-22.79,13.87
					c-14.44,8.8-33.12,5.87-44.19-6.91l-2.24-2.59l0.51-16.52l0.29-9.27c0.26,0.09,11.25,4.18,24.28,0.34
					c1.53-0.44,3.08-1,4.65-1.68C775.83,342.87,776.95,342.32,778.06,341.7z M783.82,339.16c0,0.01,0,0.02,0,0.03
					c0.05-0.03,0.1-0.06,0.16-0.09L783.82,339.16z"/>
				<path class="st7" d="M800.66,314.92c-6.44,8.07-17.19,16.6-35.03,23.8c-6.92,2.8-13.31,2.87-19.42,0.93
					c-0.03-0.01-0.06-0.02-0.08-0.03C764.71,344.27,799.61,315.77,800.66,314.92z"/>
				<path class="st4" d="M746.21,339.65c6.11,1.94,12.5,1.87,19.42-0.93c17.84-7.2,28.59-15.73,35.03-23.8
					c-6.41,14.25-14.56,22.34-22.6,26.78c-1.11,0.62-2.23,1.17-3.34,1.66c-1.57,0.68-3.12,1.24-4.65,1.68
					c-13.03,3.84-24.02-0.25-24.28-0.34l0.16-5.09l0.18,0.01C746.15,339.63,746.18,339.64,746.21,339.65z"/>
				<path class="st4" d="M745.95,339.58v0.03l-0.16,5.09l-0.01-0.01l0.16-5.11C745.95,339.58,745.95,339.58,745.95,339.58z"/>
			</g>
			<g>
			</g>
		</g>
	</g>
</g>
<path class="st8" d="M800.84,314.9c-6.44,8.08-17.2,16.61-35.05,23.83c-6.92,2.79-13.3,2.86-19.42,0.93
	c-0.04-0.01-0.07-0.02-0.11-0.03c-0.05-0.01-0.1-0.02-0.15-0.03l-0.16,5.12c0.26,0.1,11.24,4.18,24.28,0.35
	c1.53-0.45,3.08-1,4.65-1.69c1.11-0.48,2.23-1.03,3.34-1.65C786.27,337.26,794.42,329.16,800.84,314.9L800.84,314.9z"/>
<path class="st7" d="M712,293.21c-0.24-1.38-0.33-2.47-0.37-3.08l0-0.02c0.07,1.71,0.44,7.26,2.2,13.66
	c-0.67-2.49-1.17-5.06-1.49-7.71L712,293.21z"/>
<path class="st7" d="M714.42,305.76c-0.11-0.34-0.21-0.69-0.31-1.03C714.2,305.08,714.31,305.42,714.42,305.76z"/>
<path class="st7" d="M725.47,325.34c0.67,0.82,1.23,1.48,1.61,1.91c6.19,5.81,12.38,10.19,18.87,12.32l0-0.01
	C738.03,336.47,731.03,331.57,725.47,325.34z"/>
<path class="st7" d="M719.76,317.63c-0.83-1.37-1.61-2.77-2.32-4.22C717.93,314.62,718.76,316.09,719.76,317.63z"/>
<path class="st7" d="M711.63,290.04c-0.01-0.3-0.02-0.46-0.02-0.46S711.62,289.74,711.63,290.04z"/>
<path class="st7" d="M711.63,290.04c0,0.03,0,0.05,0,0.08l0,0.02C711.64,290.1,711.64,290.07,711.63,290.04z"/>
<path class="st7" d="M746.13,339.62c-0.06-0.02-0.12-0.04-0.18-0.07l0,0.01c0.05,0.02,0.1,0.03,0.15,0.05
	C746.11,339.61,746.12,339.61,746.13,339.62z"/>
<path class="st7" d="M746.1,339.61c0.04,0.01,0.07,0.02,0.11,0.03c-0.03-0.01-0.05-0.02-0.08-0.03
	C746.12,339.61,746.11,339.61,746.1,339.61z"/>
<path class="st4" d="M756.88,314.21l-10.18,1.21l-17.98,2.14c1.05,8.84,7.32,7.78,15.1,6.86c0.9-0.11,1.77-0.21,2.62-0.31
	C752.95,323.27,757.81,322.03,756.88,314.21z"/>
<path class="st7" d="M826.75,251.15c0,0-2.39-20.09-3.37-28.34c-0.21-1.77-0.72-6.09-0.72-6.09c-1.51-12.71-7.01-24.66-17.65-32.19
	c-8.37-5.92-18.55-8.6-28.61-9.82c-3.36-0.41-17.92-0.6-32.9,1.64c-4.03,0.6-8.08,1.38-11.95,2.38c0,0,0,0,0,0
	s-36.47,6.27-43.63,0.11c0,0-0.32,42.05,16.66,51.92l69.79-8.29c0.01,0,0.01,0,0.02,0c18.04-2.13,18.53,15.06,18.53,15.06
	l3.19,18.23c1.45,23.68-1.27,35.99-6.83,43.18c-4.73,6.12-11.5,8.54-19.5,11.09c-1.33-3.69-3.73-6.82-6.79-9.07
	c-3.9-2.88-8.87-4.34-14.09-3.72l-14.41,1.71c-6.29,0.75-11.47,4.38-14.52,9.36c-5.36-4.77-7.28-11.14-7.97-15.08l0.34,2.86
	c0.31,2.64,0.82,5.21,1.49,7.71c0.09,0.32,0.18,0.64,0.27,0.96c0.1,0.35,0.21,0.69,0.31,1.03c0.73,2.34,1.65,4.74,2.81,7.08
	c0.06,0.18,0.14,0.37,0.22,0.56c0.71,1.45,1.48,2.86,2.32,4.22c1.79,2.76,4.07,5.7,5.71,7.71c5.56,6.24,12.56,11.13,20.48,14.21
	c0.06,0.02,0.12,0.04,0.18,0.07c18.85,4.72,54.51-24.69,54.55-24.72c3.26-4.09,5.41-8.07,6.82-11.7l-0.31,4.03l1.37,5.25l1.16,4.46
	l0,0c9.83-20.69,14.55-38.39,16.47-48.5C827.26,262.73,827.43,256.91,826.75,251.15z M746.43,324.1c-0.85,0.11-1.72,0.21-2.62,0.31
	c-7.78,0.92-14.04,1.99-15.1-6.86l17.98-2.14l10.18-1.21C757.81,322.03,752.95,323.27,746.43,324.1z M809.47,285.23l-4.32-30.57
	c0,0,2.38-7.83,7.07-8.38c3.48-0.41,6.92-0.5,8.21,10.3C823.52,282.65,812.19,285.03,809.47,285.23z"/>
<polygon class="st7" points="688.7,510.09 695.04,509.94 693.92,448.12 "/>
<polygon class="st9" points="688.7,510.09 695.04,509.94 693.92,448.12 "/>
<radialGradient id="SVGID_1_" cx="682.7068" cy="523.4003" r="76.1539" gradientUnits="userSpaceOnUse">
	<stop  offset="0" style="stop-color:#FFFFFF"/>
	<stop  offset="1" style="stop-color:#FFFFFF;stop-opacity:0"/>
</radialGradient>
<circle class="st10" cx="682.71" cy="523.4" r="76.15"/>
<path class="st5" d="M729.89,582.36c-1.91-0.29-3.8-0.68-5.66-1.18l-9.28-2.51l-16.44-4.44c-1.22-0.33-2.38-0.78-3.47-1.34
	c-0.4-0.01-1.48-0.68-2.99-1.78c-0.53-0.38-1.1-0.82-1.72-1.3c-0.53-0.41-1.08-0.84-1.66-1.31c-8.41-6.74-21.95-19.04-22.17-20.7
	c-0.34-2.66,1.68-5.05,4.44-5.25l18.97-1.56l1.53-0.13l29.49-2.43l0.31-0.03l-1.59-8.09l-2.26-11.49c0-4.95-4.07-8.71-9.09-8.71
	l-62.6-0.1l-57.64-0.09c-6.4,0-8.04,2.29-8.04,7.24l15.05,77.85c0,4.95,4.07,7.45,9.09,7.45h35.38h47.22h1.93h3.97h30.7
	c5.02,0,9.08-2.17,9.08-7.12L729.89,582.36z"/>
<path class="st4" d="M768.91,547.88l-0.22-0.16l-3.86-2.77c-2.01-1.45-4.2-2.63-6.52-3.51l-25.27-9.66c-2.62-1-5.4-1.5-8.2-1.49
	l-5.19,0.03l1.59,8.09l-0.31,0.03l-29.49,2.43l-1.53,0.13l-18.97,1.56c-2.76,0.2-4.78,2.59-4.44,5.25
	c0.21,1.65,13.76,13.96,22.17,20.7c0.58,0.47,1.13,0.9,1.66,1.31c0.62,0.48,1.2,0.92,1.72,1.3c1.5,1.1,2.58,1.76,2.99,1.78
	c1.1,0.56,2.26,1.01,3.47,1.34l16.44,4.44l9.28,2.51c1.87,0.5,3.76,0.89,5.66,1.18c3.66,0.56,7.38,0.73,11.08,0.49l12.7-0.82
	c3.72-0.04,7.37-0.66,10.57-2.18l15.22,2.07l0.01-0.09l4.16-29.83l0.02-0.11L768.91,547.88z M777.4,581.31l1.46,0.3
	C778.33,581.55,777.85,581.44,777.4,581.31z"/>
</svg>
