<?xml version="1.0" encoding="utf-8"?>
<!-- Generator: Adobe Illustrator 25.2.1, SVG Export Plug-In . SVG Version: 6.00 Build 0)  -->
<svg version="1.1" id="Layer_1" xmlns="http://www.w3.org/2000/svg" xmlns:xlink="http://www.w3.org/1999/xlink" x="0px" y="0px"
	 viewBox="0 0 1080 1080" style="enable-background:new 0 0 1080 1080;" xml:space="preserve">
<style type="text/css">
	.st0{opacity:0.3;fill:#6E47FF;}
	.st1{fill:#03001E;}
	.st2{fill:#A230ED;}
	.st3{opacity:0.2;fill:#070606;}
	.st4{fill:#6E47FF;}
	.st5{opacity:0.1;fill:#070606;}
	.st6{fill:#FFFFFF;}
	.st7{opacity:0.15;}
	.st8{fill:#070606;}
	.st9{opacity:0.2;fill:url(#SVGID_1_);}
	.st10{fill:#03001E;stroke:#FFFFFF;stroke-width:5;stroke-linecap:round;stroke-linejoin:round;stroke-miterlimit:10;}
</style>
<path class="st0" d="M336.37,190.54c116.46-64.62,237.09-106.27,334.98-77.52c98.6,28.3,174.33,127.58,227.6,228.69
	c53.73,101.82,84.28,205.94,64.87,300.35c-19.29,93.83-89.71,177.71-182.61,257.9c-93.36,79.48-209.2,155.26-298.83,130.77
	c-89.76-23.91-152.84-147.39-229.67-264.07C176.01,649.39,86.6,539.77,97.76,441.1C108.33,342.3,220.49,255.29,336.37,190.54z"/>
<path class="st1" d="M860.99,275.52c88,99.97,154.45,208.93,147.27,310.7c-6.59,102.37-87.4,197.56-174.81,271.19
	c-88,74.23-183.19,126.32-279.57,127.51c-95.78,1.2-192.77-49.69-290.94-123.32C165.36,787.37,66.58,690.39,71.37,597.6
	C75.56,504.8,182.72,416.8,280.3,316.83c98.18-99.97,186.18-210.73,284.96-220.9C664.04,85.15,772.99,176.14,860.99,275.52z"/>
<g>
	<path class="st2" d="M500.18,887.07c0,0.01,0,0.01,0,0.02C500.18,887.08,500.18,887.08,500.18,887.07l0.94-24.3l0,0L500.18,887.07z
		"/>
	<path class="st2" d="M719.17,820.86c-2.75-0.03-5.53,0-8.32,0.05c-7.03,3.47-13.68,6.16-18.03,6.55
		c-16.16,1.45-58.88,21.52-111.12,23.13c-5.4,0.17-29.22,3.82-54.41,7.9c-6.26,29.68-11.39,81.06-15.02,123.72
		c14.04,1.95,28.05,2.9,42.03,2.72c14.22-0.18,28.41-1.47,42.56-3.77l9.77-88.31l10.5,0.47l5.88,82.44
		c31.75-7.93,63.2-20.73,94.15-37.34l2.02-40.51V820.86z"/>
	<path class="st1" d="M501.01,925.2c0.04,1.43,0.09,2.86,0.13,4.29C501.1,928.06,501.06,926.63,501.01,925.2l-0.85-36.28
		c0-0.61,0.01-1.23,0.02-1.83c-0.01,0.6-0.01,1.22-0.02,1.83L501.01,925.2z"/>
	<path class="st3" d="M501.01,925.2c0.04,1.43,0.09,2.86,0.13,4.29C501.1,928.06,501.06,926.63,501.01,925.2l-0.85-36.28
		c0-0.61,0.01-1.23,0.02-1.83c-0.01,0.6-0.01,1.22-0.02,1.83L501.01,925.2z"/>
	<path class="st1" d="M501.42,942.86c-0.05-3.01-0.11-6.05-0.18-9.14c-0.03-1.41-0.07-2.82-0.11-4.25c0.04,1.42,0.08,2.84,0.11,4.25
		C501.31,936.82,501.37,939.85,501.42,942.86z"/>
	<path class="st3" d="M501.42,942.86c-0.05-3.01-0.11-6.05-0.18-9.14c-0.03-1.41-0.07-2.82-0.11-4.25c0.04,1.42,0.08,2.84,0.11,4.25
		C501.31,936.82,501.37,939.85,501.42,942.86z"/>
	<path class="st2" d="M527.29,858.48c-8.8,1.42-17.76,2.9-26.16,4.29l-0.94,24.3c0,0.01,0,0.01,0,0.02
		c-0.01,0.6-0.01,1.22-0.02,1.83l0.85,36.28c0.04,1.43,0.09,2.86,0.13,4.29c0.04,1.42,0.08,2.84,0.11,4.25
		c0.07,3.09,0.13,6.12,0.18,9.14l-3.59,36.97c4.81,0.9,9.62,1.69,14.43,2.36C515.9,939.54,521.03,888.16,527.29,858.48z"/>
	<path class="st3" d="M527.29,858.48c-8.8,1.42-17.76,2.9-26.16,4.29l-0.94,24.3c0,0.01,0,0.01,0,0.02
		c-0.01,0.6-0.01,1.22-0.02,1.83l0.85,36.28c0.04,1.43,0.09,2.86,0.13,4.29c0.04,1.42,0.08,2.84,0.11,4.25
		c0.07,3.09,0.13,6.12,0.18,9.14l-3.59,36.97c4.81,0.9,9.62,1.69,14.43,2.36C515.9,939.54,521.03,888.16,527.29,858.48z"/>
	<path class="st4" d="M366.17,929.39c35.22,19.57,70.29,34.81,105.2,44.34l-4.42-61.97C452.51,915.49,412.37,925.1,366.17,929.39z"
		/>
	<path class="st4" d="M489.22,535.05c1.56,5.97,2.58,11.67,2.64,16.24c6.07,61.01-34.62,99.07-32.67,135.84
		c4.17,78.44,8.1,141.98,10.63,180.9c7.64-1.3,18.86-3.19,31.3-5.26l0.95-24.39c10.2,0,20.61,0,31.18,0
		c57.64,0.01,121.2-16.46,177.6-17.48c14.8-7.31,31.26-18.07,31.26-18.07s-7.12-2.55,8.97-77.71
		c16.6-77.52,59.01-151.04,60.56-155.27c0,0-46.57-108.99-54.61-129.29c-3.9-9.85-12.36-15.87-21.35-19.56l0.01-0.13
		c-14.41-5.76-28.74-10.15-42.82-13.42c-77.38-9.93-68.69-7.54-139.16-1.9c-25.45,4.76-44.05,10.99-52.32,14.04
		c-17.94,4.43-28.99,27.86-35.78,56.63c4.51,7.65,9.69,18.84,16.45,35.89C485.21,520.1,487.56,527.73,489.22,535.05z"/>
	<path class="st4" d="M533.25,838.39c-10.57,0-20.98,0-31.18,0l-0.95,24.39l0,0l0.95-24.39
		C512.27,838.39,522.68,838.39,533.25,838.39z"/>
	<path class="st4" d="M527.29,858.48c25.19-4.08,49.01-7.73,54.41-7.9c52.23-1.61,94.96-21.68,111.12-23.13
		c4.35-0.39,11-3.08,18.03-6.55c-56.4,1.02-119.96,17.49-177.6,17.48C531.17,842.56,529.18,849.54,527.29,858.48z"/>
	<path class="st4" d="M502.07,838.39l-0.95,24.39c8.41-1.4,17.37-2.87,26.16-4.29c1.89-8.95,3.88-15.93,5.96-20.09
		C522.68,838.39,512.27,838.39,502.07,838.39z"/>
	<path class="st2" d="M443.37,699.16c0,0,9.77-78.03,11.83-94.77c0,0-0.03-1.03-0.07-2.94C412.1,641.95,346.6,685.01,323.4,699
		c-19.41,11.7-38.67,19.98-75.68,39.4c-12.62,29.6-18.48,63.67-20.98,94.21c12.08,9.98,24.35,19.66,36.6,28.98
		c21.94,16.45,43.81,31.77,65.63,45.62l136.93-10.01l1.04,14.54c3.69-0.96,5.7-1.53,5.7-1.53s-1.07-15.16-2.83-42.2
		c-6.39,1.08-10.28,1.75-10.28,1.75L443.37,699.16z"/>
	<path class="st2" d="M216.9,742.9c-0.07-0.81-0.17-1.89-0.29-3.13c2.01,25.71,2.88,57.73,3.19,87.06c0.05,0.04,0.09,0.08,0.14,0.11
		C219.66,798.64,218.84,767.88,216.9,742.9z"/>
	<path class="st2" d="M257.79,573.11c0.72-2.57-7.42-35.46-7.16-37.87c6.06,14.28,22.27,61.91,34.7,61.91
		c44.64,0,132.2-82.68,175.73-97.19c1.25-8.12,2.75-16.11,4.55-23.73c-8.86-15.03-15.15-16.39-25.79-21.51
		c-138.96-66.99-219.34,1.22-258.02,19.25c-7.85,3.66-13.65,31.59-12.61,40.19c12.35,102.45,39.02,158.09,45.34,204.85
		c-0.45-3.37-0.99-6.81-1.57-10.3C226.46,702.12,254.89,583.51,257.79,573.11z"/>
	<path class="st2" d="M328.98,907.22c12.41,7.88,24.81,15.29,37.18,22.17c46.21-4.28,86.35-13.89,100.78-17.63l-1.04-14.54
		L328.98,907.22z"/>
	<path class="st2" d="M491.86,551.29c0.04,2.98-0.32,5.47-1.19,7.24c-6.38,12.83-19.38,27.69-35.55,42.92
		c0.04,1.91,0.07,2.94,0.07,2.94c-2.06,16.74-11.83,94.77-11.83,94.77l16.17,170.63c0,0,3.89-0.67,10.28-1.75
		c-2.53-38.92-6.46-102.46-10.63-180.9C457.24,650.36,497.93,612.3,491.86,551.29z"/>
	<path class="st2" d="M471.74,497.8c3.62-0.1,12.9,19.71,17.48,37.25c-1.66-7.32-4.01-14.95-7.17-22.92
		c-6.76-17.05-11.94-28.24-16.45-35.89c-1.8,7.62-3.3,15.62-4.55,23.73C465,498.65,468.59,497.88,471.74,497.8z"/>
	<path class="st1" d="M214.86,721.57c-0.1-0.85-0.21-1.7-0.33-2.55C214.64,719.87,214.76,720.72,214.86,721.57z"/>
	<path class="st5" d="M214.86,721.57c-0.1-0.85-0.21-1.7-0.33-2.55C214.64,719.87,214.76,720.72,214.86,721.57z"/>
	<path class="st1" d="M216.61,739.77c-0.51-6.52-1.09-12.64-1.76-18.2C215.24,724.75,216.09,734.03,216.61,739.77z"/>
	<path class="st5" d="M216.61,739.77c-0.51-6.52-1.09-12.64-1.76-18.2C215.24,724.75,216.09,734.03,216.61,739.77z"/>
	<path class="st4" d="M489.22,535.05c1.27,5.59,2.12,11,2.64,16.24C491.8,546.72,490.78,541.02,489.22,535.05z"/>
	<path class="st5" d="M489.22,535.05c1.27,5.59,2.12,11,2.64,16.24C491.8,546.72,490.78,541.02,489.22,535.05z"/>
	<path class="st2" d="M219.94,826.94c2.26,1.9,4.53,3.8,6.8,5.68c2.49-30.54,8.35-64.61,20.98-94.21c37-19.43,56.27-27.7,75.68-39.4
		c23.2-13.99,88.7-57.05,131.72-97.56c-0.25-11.97-0.68-58.42,5.94-101.48c-43.53,14.51-131.09,97.19-175.73,97.19
		c-12.43,0-28.64-47.64-34.7-61.91c-0.26,2.41,7.87,35.3,7.16,37.87c-2.9,10.4-31.32,129.01-44.83,135.61
		c0.58,3.49,1.12,6.93,1.57,10.3c0.12,0.85,0.23,1.7,0.33,2.55c0.67,5.56,1.25,11.68,1.76,18.2c0.11,1.24,0.21,2.32,0.29,3.13
		C218.84,767.88,219.66,798.64,219.94,826.94z"/>
	<path class="st5" d="M219.94,826.94c2.26,1.9,4.53,3.8,6.8,5.68c2.49-30.54,8.35-64.61,20.98-94.21c37-19.43,56.27-27.7,75.68-39.4
		c23.2-13.99,88.7-57.05,131.72-97.56c-0.25-11.97-0.68-58.42,5.94-101.48c-43.53,14.51-131.09,97.19-175.73,97.19
		c-12.43,0-28.64-47.64-34.7-61.91c-0.26,2.41,7.87,35.3,7.16,37.87c-2.9,10.4-31.32,129.01-44.83,135.61
		c0.58,3.49,1.12,6.93,1.57,10.3c0.12,0.85,0.23,1.7,0.33,2.55c0.67,5.56,1.25,11.68,1.76,18.2c0.11,1.24,0.21,2.32,0.29,3.13
		C218.84,767.88,219.66,798.64,219.94,826.94z"/>
	<path class="st2" d="M490.67,558.53c0.88-1.77,1.24-4.26,1.19-7.24c-0.52-5.24-1.38-10.64-2.64-16.24
		c-4.58-17.53-13.86-37.35-17.48-37.25c-3.15,0.08-6.74,0.85-10.68,2.17c-6.62,43.05-6.18,89.51-5.94,101.48
		C471.29,586.22,484.29,571.35,490.67,558.53z"/>
	<path class="st5" d="M490.67,558.53c0.88-1.77,1.24-4.26,1.19-7.24c-0.52-5.24-1.38-10.64-2.64-16.24
		c-4.58-17.53-13.86-37.35-17.48-37.25c-3.15,0.08-6.74,0.85-10.68,2.17c-6.62,43.05-6.18,89.51-5.94,101.48
		C471.29,586.22,484.29,571.35,490.67,558.53z"/>
</g>
<path class="st6" d="M628.18,87.26c0.01,3.91,0.63,6.69,0.63,6.69h128.31c0,0-0.62-2.78-0.63-6.69H628.18z"/>
<path class="st6" d="M761.46,93.94h128.31c1.03-2.26,1.84-4.49,2.48-6.69H763.93C763.29,89.46,762.49,91.69,761.46,93.94z"/>
<path class="st6" d="M756.49,87.26c0.01,3.91,0.63,6.69,0.63,6.69h4.35c1.03-2.26,1.84-4.49,2.48-6.69H756.49z"/>
<path class="st6" d="M533.51,483.64c5.19-0.58,10.43-0.28,15.54,0.78l0,0l62.53,11.94c2.8,0.64,4.49,3.42,3.72,6.09
	c-0.67,2.3-2.96,3.77-5.42,3.46l-26.24-3.58c-0.84,2.81-1.57,5.26-1.57,5.26c-4.42,8.31-12.96,12.88-21.65,15.56
	c-6.23,1.92-12.69,3.19-19.22,3.39c-8.04,0.26-15.94-1.82-23.72-3.55c0,0-3.53-1.42-6.85-3.24l-16.58-0.31l-16.12-26.55l16.22-4.26
	c2.58-0.68,5.21-1.17,7.86-1.47L533.51,483.64z"/>
<path class="st2" d="M482.06,487.86L265.43,636.13c0,0-15.58-139.04-26.78-150.67c-20.36-21.14-50.34-19.33-61.43-7.91
	c-10.08,10.38-8.94,32.66-9.48,40.71c-5.07,74.84,35.59,207.69,64.16,206.86c5.15-0.15,72.63-13.24,124.95-69.88
	c9.25-10.01,134.75-128.16,143.28-131.9C496.29,511.01,488.64,498.59,482.06,487.86z"/>
<g>
	<g>
		<path class="st6" d="M396.68,344.23c0.47,35.5-27.63,64.42-64.3,64.9c-36.68,0.48-72.6-63.93-75.39-87.96l-1.29-53.69l139.94-1.84
			L396.68,344.23z"/>
	</g>
	<g>
		<path class="st6" d="M364.69,439.38l-8.23-82.51l-72.78,3.99l-1.57,82.44l17.93,9.62c13.5,7.24,29.44,9.13,43.98,4.3
			C362.29,451.16,364.69,439.38,364.69,439.38z"/>
	</g>
	<g class="st7">
		<path class="st8" d="M361.58,408.2l-0.63-6.29c-21.51,8.81-65.95-21.56-65.95-21.56C324.87,428.57,361.58,408.2,361.58,408.2z"/>
	</g>
	<g>
		<path class="st2" d="M279.94,347.37l0.34-37.66l10.87-0.14c3.67,52.34,18.22,56.3,39.67,60.16c2.27-10.4,11.52-18.27,22.73-18.42
			l17.34-0.23c7.57-0.1,14.27,3.4,18.67,8.81c8.72-10.1,6.97-23.47,6.97-23.47s1.71,14.68-3,28.43c-0.99,5.16-7.49,15.76-9.42,18.61
			c-12.54,15.34-25.42,24.47-43.86,19.62C275.82,386.14,279.94,347.37,279.94,347.37z"/>
	</g>
	<g>
		<path class="st6" d="M363.85,382.72c-9.36,0.12-16.94,0.6-17.08-10.04l33.88-0.45C380.8,382.87,373.21,382.6,363.85,382.72z"/>
	</g>
	<path class="st2" d="M269.47,226.61c8.99-8.32,20.63-13.09,32.35-16.11c4.97-1.28,31.35-4.97,53.75-2.26v0
		c0,0,44.17,1.72,51.69-6.7c0,0,6.96,49.76-11.61,64.1l-83.96,1.1c-21.72,0.29-19.61,20.73-19.61,20.73l-0.93,22.1l-10.87,0.14
		c0,0-4.04-8.9-9.69-8.82c-4.19,0.06-8.28,0.49-8.11,13.48c0.47,35.56,18.15,32.15,18.15,32.15l5.46,25.76l-2.86,11.9
		c-14.88-22.97-21.86-43.19-25.71-54.86c-2.17-6.58-3.28-13.45-3.37-20.38c0,0-0.54-41.42-0.54-41.42
		C253.41,252.21,258.05,237.2,269.47,226.61z"/>
</g>
<polygon class="st1" points="649.37,378.81 649.38,378.8 649.37,378.8 "/>
<path class="st1" d="M685.05,339.89c0.01-0.03,0.02-0.06,0.03-0.09c-1.65,3.97-3.55,7.81-5.66,11.45
	C681.59,347.79,683.52,344.01,685.05,339.89z"/>
<path class="st1" d="M580.95,355.66c0.01,0.01,0.02,0.03,0.02,0.03l0-0.01C580.97,355.68,580.96,355.67,580.95,355.66z"/>
<path class="st1" d="M693.11,306.74c0.32-2.02,0.61-4.01,0.88-5.95c0-0.13,0-0.26,0-0.39L693.11,306.74z"/>
<polygon class="st6" points="580.98,355.69 580.98,355.69 580.98,355.69 580.98,355.69 580.98,355.69 "/>
<path class="st6" d="M646,417.01v-15.16l2.53-17.32c-5.56,9.31-16.3,8.92-31.67,3.43c-17.2-6.15-25.89-14.52-36.49-29.1l-5.58,29.12
	c0,0,0,0,0,0c-1.21,3.03-3.08,17.29-3.99,25.13c4.6,14.31,17.63,19.67,32.17,21.8C623.11,437.85,643.05,437.18,646,417.01z"/>
<polygon class="st1" points="649.37,378.8 649.37,378.81 649.37,378.81 649.37,378.8 "/>
<polygon class="st5" points="649.37,378.8 649.37,378.81 649.37,378.81 649.37,378.8 "/>
<path class="st6" d="M648.53,384.53l0.84-5.72h0l0,0c-5.15,1.78-10.61,2.44-16.32,1.74c-23.29-2.89-40.86-12.14-52.07-24.85l0,0.01
	l-0.61,3.16c10.6,14.58,19.29,22.96,36.49,29.1C632.23,393.45,642.97,393.84,648.53,384.53z"/>
<path class="st5" d="M648.53,384.53l0.84-5.72h0l0,0c-5.15,1.78-10.61,2.44-16.32,1.74c-23.29-2.89-40.86-12.14-52.07-24.85l0,0.01
	l-0.61,3.16c10.6,14.58,19.29,22.96,36.49,29.1C632.23,393.45,642.97,393.84,648.53,384.53z"/>
<polygon class="st2" points="646,401.85 646,401.85 648.53,384.53 648.53,384.53 "/>
<polygon class="st2" points="648.53,384.53 648.53,384.53 649.37,378.81 649.37,378.81 "/>
<path class="st2" d="M580.07,358.45c0.1,0.14,0.2,0.27,0.3,0.41l0.61-3.16L580.07,358.45z"/>
<polygon class="st2" points="649.37,378.81 648.53,384.53 648.53,384.53 649.37,378.81 "/>
<path class="st2" d="M685.08,339.8c3.28-7.88,5.62-16.28,6.84-24.6l1.18-8.46C691.35,317.79,688.79,329.81,685.08,339.8z"/>
<path class="st2" d="M649.38,378.8c12.14-4.19,22.49-14.55,30.05-27.56C667.82,369.75,649.49,378.75,649.38,378.8z"/>
<polygon class="st6" points="569.35,295.05 569.35,295.05 569.35,295.05 "/>
<path class="st6" d="M568.72,299.8c0.41-3.27,0.63-4.75,0.63-4.75l-0.68,4.67C568.69,299.74,568.7,299.77,568.72,299.8z"/>
<path class="st2" d="M693.99,300.4c0,0.13,0,0.26,0,0.39c0.26-1.85,0.49-3.66,0.7-5.4L693.99,300.4z"/>
<path class="st2" d="M676.2,190.77c-22.13-14.2-50.07-16.36-74.46-6.51c-21.85,8.83-48.87,40.7-52.34,83.91
	c-3.85,48-11.65,99.25-8.1,129.36c2.46,20.88,10.9,26,27.75,35.96c0,0,0.98-14.5,2.49-27.39c0.92-7.84,2.03-15.08,3.24-18.11
	c0,0,0,0,0,0l5.58-29.12c-0.1-0.14-0.2-0.27-0.3-0.41l0.91-2.75l0,0c0,0-0.02-0.02-0.02-0.03c-7.07-8.03-11.59-17.45-13.4-27.52
	c-0.87-3.6-1.28-7.19-0.91-10.54c0.01-0.06,0.01-0.12,0.02-0.19c0.02-2.72,0.22-5.47,0.62-8.23l1.38-9.46
	c-7.82-11.82-4.71-31.56,0.66-34.2c1.5-0.74,2.97-0.68,4.36-0.13c0.37,0.14,0.74,0.32,1.09,0.53c0.26,0.15,0.52,0.32,0.77,0.49
	l-1.79,8.25l-0.58,4.97c0,0,3.02-3.35,6.89-8.34c6.35-8.19,14.99-20.78,16.37-30.26c0,0,87.95,4.96,96.4,46.64
	c0.83,4.08,1.15,8.38,1.14,12.72l0.7-5.01c-0.21,1.74-0.45,3.55-0.7,5.4c-0.27,1.94-0.56,3.93-0.88,5.95l-1.18,8.46
	c-1.22,8.32-3.56,16.71-6.84,24.6c-0.01,0.03-0.02,0.06-0.03,0.09c-1.53,4.12-3.46,7.9-5.63,11.36
	c-7.56,13.01-17.91,23.37-30.05,27.56c0,0-0.01,0-0.01,0l-0.84,5.72c0,0,0,0,0,0l-1.79,12.23c-0.49,3.38-0.74,6.8-0.74,10.22v10.03
	l18.4,24.26c8.79-6.16,19.25-16.21,25.6-33.92c10.51-29.33,2.76-68.87,15.03-124.99C715.36,235.11,696.43,203.75,676.2,190.77z"/>
<path class="st6" d="M693.11,306.74l0.88-6.34c0.01-4.34-0.31-8.64-1.14-12.72c-8.45-41.68-96.4-46.64-96.4-46.64
	c-1.38,9.47-10.02,22.07-16.37,30.26c-3.87,4.99-6.89,8.34-6.89,8.34l0.58-4.97l1.79-8.25c-0.25-0.18-0.51-0.34-0.77-0.49
	c-0.36-0.21-0.72-0.39-1.09-0.53c-1.39-0.54-2.86-0.6-4.36,0.13c-5.38,2.64-8.48,22.38-0.66,34.2l0.68-4.67l0,0v0l0,0
	c0,0.01-0.22,1.49-0.63,4.75c-0.02-0.03-0.03-0.06-0.05-0.08l-1.38,9.46c-0.4,2.76-0.6,5.51-0.62,8.23
	c-0.01,0.06-0.01,0.12-0.02,0.19c-0.37,3.35,0.04,6.94,0.91,10.54c1.81,10.07,6.34,19.49,13.4,27.52c0.01,0.01,0.02,0.02,0.03,0.03
	c0,0,0,0,0,0c11.2,12.72,28.78,21.97,52.07,24.85c5.71,0.71,11.18,0.04,16.32-1.74c0,0,0,0,0,0c0,0,0,0,0.01,0
	c0.11-0.06,18.45-9.05,30.05-27.56c2.11-3.64,4.01-7.47,5.66-11.45C688.79,329.81,691.35,317.79,693.11,306.74z"/>
<path class="st6" d="M378.51,599.62c0,0-16.71,4.39-14.8,38.35c0.48,8.45,2.41,16.27,7.83,22.17c10.45,11.37,30.07,11.95,40.9,1.22
	c3.84-3.8,2.47-11.87,1.45-17.05c-1.23-6.22-3.99-12.55-9.35-14.64C393.69,625.44,377.25,612.69,378.51,599.62z"/>
<path class="st6" d="M952.21,479.42c-0.71,0.99-1.41,1.88-2.12,2.6c-7.8,7.85-19.28,18.33-18.3,30.57
	c1.17,14.67,18.78,19.96,29.93,18.19c11.15-1.76,18.78-19.37,17.02-34.33c-1.76-14.97-0.59-31.99-8.51-33.45
	C961.78,461.42,956.91,472.82,952.21,479.42z"/>
<radialGradient id="SVGID_1_" cx="598.0782" cy="578.3879" r="259.718" gradientUnits="userSpaceOnUse">
	<stop  offset="0" style="stop-color:#FFFFFF"/>
	<stop  offset="0.9553" style="stop-color:#FFFFFF;stop-opacity:0.0447"/>
	<stop  offset="1" style="stop-color:#FFFFFF;stop-opacity:0"/>
</radialGradient>
<circle class="st9" cx="598.08" cy="578.39" r="259.72"/>
<g>
	<polygon class="st10" points="986.26,373.07 831.9,443.03 727.51,491.89 513.18,540.76 377.69,529.65 385.47,889.46 506.52,878.61 
		701.97,846.15 819.68,745.09 975.16,725.1 945.17,575.18 	"/>
	<g>
		<polygon class="st6" points="833.01,467.46 831.59,499.54 830.01,531.61 826.85,595.75 823.35,659.88 821.59,691.94 
			819.68,723.99 821.11,691.91 822.68,659.84 825.85,595.7 829.35,531.58 831.1,499.52 		"/>
	</g>
	<g>
		<polygon class="st6" points="733.06,508.55 729.7,548 726.17,587.43 719.12,666.29 711.74,745.12 708.04,784.54 704.19,823.94 
			707.55,784.5 711.08,745.06 718.13,666.2 725.51,587.37 729.21,547.95 		"/>
	</g>
	<g>
		<polygon class="st6" points="512.07,558.53 511.62,595.87 511.01,633.21 509.79,707.9 508.24,782.58 507.45,819.92 506.52,857.26 
			506.96,819.91 507.57,782.57 508.79,707.88 510.35,633.2 511.13,595.86 		"/>
	</g>
</g>
</svg>
