<?xml version="1.0" encoding="utf-8"?>
<!-- Generator: Adobe Illustrator 25.2.1, SVG Export Plug-In . SVG Version: 6.00 Build 0)  -->
<svg version="1.1" id="Layer_1" xmlns="http://www.w3.org/2000/svg" xmlns:xlink="http://www.w3.org/1999/xlink" x="0px" y="0px"
	 viewBox="0 0 1080 1080" style="enable-background:new 0 0 1080 1080;" xml:space="preserve">
<style type="text/css">
	.st0{opacity:0.3;fill:#6E47FF;}
	.st1{fill:#03001E;}
	.st2{opacity:0.5;}
	.st3{fill:#FFFFFF;}
	.st4{opacity:0.2;fill:url(#SVGID_1_);}
	.st5{fill:#03001E;stroke:#6D2E9E;stroke-width:4;stroke-miterlimit:10;}
	.st6{fill:none;stroke:#6D2E9E;stroke-width:3;stroke-miterlimit:10;}
	.st7{fill:#FFFFFF;stroke:#6D2E9E;stroke-width:4;stroke-miterlimit:10;}
	.st8{fill:#7026C6;}
	.st9{fill:#6D2E9E;}
	.st10{fill:none;stroke:#6D2E9E;stroke-width:4;stroke-miterlimit:10;}
	.st11{fill:none;stroke:#6D2E9E;stroke-width:6;stroke-linecap:round;stroke-linejoin:round;stroke-miterlimit:10;}
</style>
<path class="st0" d="M234.87,919.59c-76.46-44.76-106.35-169.53-134.32-283.33c-27.19-113.94-52.6-217.69-28.9-313.07
	c22.77-96.03,94.65-183.68,185.9-234.36c90.61-49.76,202.18-62.8,289.52-29.63c88.27,33.82,152.32,113.86,241.21,192.78
	c89.54,78,202.48,155.95,251.54,274.94c48.93,118.21,32.42,277.73-58.18,346.06c-91.52,67.68-257.11,44.15-402.21,50.14
	C435.14,928.98,312.11,964.22,234.87,919.59z"/>
<path class="st1" d="M929.85,174.57c67.6,57.26,75.56,185.32,83.51,302.23c7.16,116.92,14.32,223.49-25.45,313.37
	c-38.97,90.67-124.87,164.64-223.49,198.84c-97.83,33.4-209.97,27.04-290.3-20.68c-81.13-48.52-130.44-138.39-204.4-231.45
	c-74.76-92.26-172.59-188.5-200.43-314.16C41.44,297.85,85.19,143.55,186.2,91.85c101.8-50.9,260.87,0.8,404.83,19.88
	C734.19,130.83,861.45,117.31,929.85,174.57z"/>
<g class="st2">
	<g>
		<path class="st3" d="M580.8,519.09l0.9,24.83l0.77,24.83l1.53,49.66l1.32,49.66l1.08,49.66c0.34,16.55,0.98,33.11,1.52,49.66
			c0.51,16.55,0.56,33.11,0.08,49.66c-0.47,16.55-1.23,33.11-2.35,49.66c-1.15,16.55-2.56,33.11-4.85,49.66
			c-0.06,0.44-0.47,0.75-0.91,0.69c-0.37-0.05-0.64-0.34-0.69-0.69c-2.29-16.55-3.71-33.11-4.85-49.66
			c-1.11-16.55-1.88-33.11-2.35-49.66c-0.48-16.55-0.43-33.11,0.08-49.66c0.54-16.55,1.18-33.11,1.52-49.66l1.08-49.66l1.32-49.66
			l1.53-49.66l0.77-24.83l0.9-24.83c0.02-0.44,0.39-0.79,0.83-0.77C580.45,518.33,580.78,518.67,580.8,519.09z"/>
	</g>
	<g>
		<path class="st3" d="M580.8,123.61c2.29,16.48,3.71,32.96,4.85,49.43c1.11,16.48,1.88,32.96,2.35,49.43
			c0.48,16.48,0.43,32.96-0.08,49.43c-0.54,16.48-1.18,32.96-1.52,49.43l-1.08,49.43L584,420.22l-1.53,49.43l-0.77,24.72l-0.9,24.72
			c-0.02,0.44-0.39,0.79-0.83,0.77c-0.42-0.02-0.76-0.36-0.77-0.77l-0.9-24.72l-0.77-24.72L576,420.22l-1.32-49.43l-1.08-49.43
			c-0.34-16.48-0.98-32.96-1.52-49.43c-0.51-16.48-0.56-32.96-0.08-49.43c0.47-16.48,1.23-32.96,2.35-49.43
			c1.15-16.48,2.56-32.96,4.85-49.43c0.06-0.44,0.47-0.75,0.91-0.69C580.48,122.98,580.75,123.26,580.8,123.61z"/>
	</g>
	<g>
		<path class="st3" d="M583.65,519.2l24.55-0.9l24.55-0.77l49.09-1.53l49.09-1.32l49.09-1.08c16.36-0.34,32.73-0.98,49.09-1.52
			c16.36-0.51,32.73-0.56,49.09-0.08c16.36,0.47,32.73,1.23,49.09,2.35c16.36,1.15,32.73,2.56,49.09,4.85
			c0.44,0.06,0.75,0.47,0.69,0.91c-0.05,0.37-0.34,0.64-0.69,0.69c-16.36,2.29-32.73,3.71-49.09,4.85
			c-16.36,1.11-32.73,1.88-49.09,2.35c-16.36,0.48-32.73,0.43-49.09-0.08c-16.36-0.54-32.73-1.18-49.09-1.52l-49.09-1.08L681.84,524
			l-49.09-1.53l-24.55-0.77l-24.55-0.9c-0.44-0.02-0.79-0.39-0.77-0.83C582.9,519.55,583.24,519.22,583.65,519.2z"/>
	</g>
	<g>
		<path class="st3" d="M183.61,519.2c16.67-2.29,33.34-3.71,50-4.85c16.67-1.11,33.34-1.88,50-2.35c16.67-0.48,33.34-0.43,50,0.08
			c16.67,0.54,33.34,1.18,50,1.52l50,1.08l50,1.32l50,1.53l25,0.77l25,0.9c0.44,0.02,0.79,0.39,0.77,0.83
			c-0.02,0.42-0.36,0.76-0.77,0.77l-25,0.9l-25,0.77l-50,1.53l-50,1.32l-50,1.08c-16.67,0.34-33.34,0.98-50,1.52
			c-16.67,0.51-33.34,0.56-50,0.08c-16.67-0.47-33.34-1.23-50-2.35c-16.67-1.15-33.34-2.56-50-4.85c-0.44-0.06-0.75-0.47-0.69-0.91
			C182.97,519.52,183.26,519.25,183.61,519.2z"/>
	</g>
	<g>
		<path class="st3" d="M593.7,510.52l19.67-13.31L633.11,484l39.47-26.41l39.59-26.23l39.71-26.02
			c13.25-8.66,26.34-17.57,39.48-26.39c13.16-8.8,26.56-17.22,40.24-25.17c13.68-7.97,27.51-15.69,41.53-23.11
			c14.04-7.39,28.21-14.56,42.85-20.99c0.41-0.18,0.89,0.01,1.06,0.42c0.15,0.34,0.05,0.72-0.22,0.94
			c-12.22,10.31-24.9,19.88-37.72,29.22c-12.84,9.31-25.86,18.33-39.05,27.1c-13.17,8.78-26.63,17.1-40.33,25.04
			c-13.72,7.91-27.48,15.74-41.09,23.81L717.8,440.4l-40.98,23.98l-41.1,23.8l-20.55,11.9l-20.62,11.79
			c-0.38,0.22-0.87,0.09-1.09-0.3C593.25,511.21,593.36,510.75,593.7,510.52z"/>
	</g>
	<g>
		<path class="st3" d="M243.16,728.96c13.39-11.05,27.25-21.35,41.25-31.42c14.02-10.05,28.22-19.8,42.58-29.3
			c14.35-9.51,28.99-18.57,43.86-27.24c14.89-8.64,29.83-17.2,44.62-26.02l44.39-26.39l44.52-26.19l44.63-26l22.32-13l22.38-12.89
			c0.38-0.22,0.87-0.09,1.09,0.29c0.21,0.37,0.1,0.83-0.25,1.06l-21.44,14.41l-21.5,14.31l-43.01,28.61l-43.12,28.43l-43.25,28.22
			c-14.43,9.39-28.69,19.03-43.01,28.6c-14.34,9.53-28.91,18.68-43.77,27.37c-14.85,8.7-29.86,17.16-45.06,25.31
			c-15.21,8.13-30.57,16.03-46.38,23.19c-0.41,0.18-0.88,0-1.07-0.4C242.79,729.58,242.89,729.19,243.16,728.96z"/>
	</g>
	<g>
		<path class="st3" d="M579.17,520.42l-21.47-12.33l-21.41-12.43l-42.81-24.87l-42.7-25.05l-42.57-25.26
			c-14.18-8.43-28.52-16.62-42.8-24.88c-14.27-8.29-28.3-16.97-42.04-26.11c-13.75-9.12-27.35-18.5-40.76-28.16
			c-13.39-9.7-26.65-19.62-39.43-30.29c-0.34-0.29-0.39-0.79-0.1-1.14c0.24-0.28,0.63-0.36,0.95-0.22
			c15.21,6.78,29.96,14.3,44.57,22.05c14.59,7.78,28.99,15.85,43.24,24.18c14.26,8.31,28.23,17.09,41.96,26.24
			c13.71,9.18,27.38,18.45,41.2,27.46l41.43,27.09l41.3,27.29l41.19,27.48l20.59,13.74l20.53,13.85c0.37,0.25,0.46,0.74,0.22,1.11
			C579.99,520.53,579.53,520.63,579.17,520.42z"/>
	</g>
	<g>
		<path class="st3" d="M915.99,730.32c-15.25-6.8-30.03-14.35-44.67-22.12c-14.62-7.8-29.06-15.9-43.34-24.25
			c-14.29-8.34-28.29-17.13-42.06-26.3c-13.75-9.21-27.45-18.49-41.3-27.53l-41.53-27.15l-41.4-27.36l-41.29-27.54l-20.64-13.77
			l-20.58-13.88c-0.37-0.25-0.46-0.74-0.22-1.11c0.24-0.35,0.7-0.45,1.06-0.25l21.52,12.36L623,543.89l42.91,24.93l42.8,25.12
			l42.67,25.32c14.21,8.46,28.59,16.66,42.91,24.95c14.3,8.32,28.37,17.01,42.15,26.17c13.79,9.14,27.42,18.54,40.86,28.23
			c13.43,9.72,26.71,19.66,39.54,30.36c0.34,0.29,0.39,0.79,0.1,1.14C916.7,730.38,916.31,730.46,915.99,730.32z"/>
	</g>
	<g>
		<path class="st3" d="M581.81,521.67l12.5,21.24l12.39,21.3l24.77,42.6l24.58,42.7l24.37,42.82c8.11,14.28,16.48,28.42,24.76,42.61
			c8.25,14.2,16.11,28.62,23.49,43.29c7.4,14.67,14.53,29.47,21.36,44.45c6.8,14.99,13.36,30.11,19.15,45.64
			c0.16,0.42-0.06,0.88-0.47,1.04c-0.35,0.13-0.72,0-0.93-0.28c-9.82-13.35-18.88-27.13-27.69-41.02
			c-8.79-13.92-17.27-27.99-25.49-42.22c-8.23-14.21-15.99-28.69-23.35-43.37c-7.33-14.7-14.58-29.45-22.09-44.05l-22.47-43.85
			l-22.26-43.96l-22.07-44.06l-11.03-22.03l-10.92-22.09c-0.2-0.4-0.03-0.88,0.36-1.07C581.14,521.17,581.6,521.31,581.81,521.67z"
			/>
	</g>
	<g>
		<path class="st3" d="M392.22,170.91c9.92,13.52,19.06,27.47,27.97,41.54c8.88,14.09,17.45,28.34,25.76,42.73
			c8.33,14.38,16.17,29.03,23.63,43.88c7.42,14.87,14.76,29.79,22.36,44.57l22.75,44.36l22.54,44.47l22.35,44.57l11.17,22.29
			l11.06,22.35c0.2,0.4,0.03,0.88-0.36,1.07c-0.38,0.19-0.83,0.05-1.05-0.31l-12.64-21.5l-12.53-21.56l-25.05-43.11l-24.86-43.22
			l-24.65-43.33c-8.2-14.45-16.66-28.76-25.04-43.12c-8.34-14.37-16.3-28.96-23.77-43.81c-7.49-14.84-14.71-29.82-21.64-44.96
			c-6.89-15.16-13.55-30.45-19.43-46.15c-0.16-0.42,0.06-0.88,0.47-1.04C391.63,170.51,392.01,170.63,392.22,170.91z"/>
	</g>
	<g>
		<path class="st3" d="M581.2,519.47l-11.02,22.28l-11.13,22.22l-22.27,44.43l-22.46,44.33l-22.67,44.22
			c-7.57,14.73-14.89,29.6-22.29,44.43c-7.43,14.81-15.25,29.4-23.55,43.74c-8.29,14.34-16.83,28.55-25.69,42.59
			c-8.88,14.02-18,27.92-27.89,41.39c-0.26,0.36-0.77,0.44-1.13,0.17c-0.3-0.22-0.4-0.6-0.28-0.93
			c5.86-15.66,12.49-30.9,19.35-46.01c6.9-15.1,14.1-30.03,21.56-44.82c7.45-14.8,15.37-29.34,23.69-43.66
			c8.35-14.31,16.79-28.57,24.96-42.98l24.57-43.19l24.78-43.07l24.97-42.97l12.49-21.48l12.6-21.43c0.22-0.38,0.71-0.51,1.1-0.28
			C581.25,518.64,581.38,519.09,581.2,519.47z"/>
	</g>
	<g>
		<path class="st3" d="M769.19,171.68c-5.82,15.58-12.41,30.75-19.23,45.78c-6.85,15.02-14.01,29.88-21.44,44.59
			c-7.41,14.72-15.29,29.19-23.57,43.44c-8.31,14.23-16.7,28.42-24.84,42.75l-24.45,42.96l-24.66,42.85l-24.85,42.74l-12.43,21.37
			l-12.54,21.31c-0.22,0.38-0.71,0.51-1.1,0.28c-0.36-0.21-0.49-0.67-0.31-1.04l10.96-22.16l11.07-22.1l22.15-44.2l22.34-44.1
			l22.55-43.99c7.53-14.65,14.81-29.45,22.16-44.2c7.39-14.73,15.17-29.25,23.43-43.51c8.24-14.27,16.75-28.4,25.56-42.36
			c8.84-13.95,17.92-27.77,27.77-41.17c0.26-0.36,0.77-0.44,1.13-0.17C769.21,170.96,769.31,171.35,769.19,171.68z"/>
	</g>
</g>
<radialGradient id="SVGID_1_" cx="564.5891" cy="512.7154" r="445.4576" gradientUnits="userSpaceOnUse">
	<stop  offset="0" style="stop-color:#FFFFFF"/>
	<stop  offset="0.9526" style="stop-color:#FFFFFF;stop-opacity:0.0474"/>
	<stop  offset="1" style="stop-color:#FFFFFF;stop-opacity:0"/>
</radialGradient>
<circle class="st4" cx="564.59" cy="512.72" r="445.46"/>
<g>
	<path class="st5" d="M821.63,636.78H313.85c-9.26,0-16.76-7.5-16.76-16.76V279.46c0-9.26,7.5-16.76,16.76-16.76h507.79
		c9.26,0,16.76,7.5,16.76,16.76v340.56C838.39,629.28,830.89,636.78,821.63,636.78z"/>
	<g>
		<path class="st5" d="M914.76,802.77c0,0-83.81-166.07-92.99-166.07H313.71c-9.18,0-82.35,166.07-82.35,166.07
			c0,0.23,0.02,0.45,0.03,0.67h683.34C914.73,803.22,914.76,803,914.76,802.77z"/>
		<path class="st5" d="M231.39,803.45c0.36,8.87,7.64,15.95,16.59,15.95h650.16c8.95,0,16.23-7.08,16.59-15.95H231.39z"/>
	</g>
	<polygon class="st6" points="637.6,747.18 496.62,747.18 488.4,794.53 644.44,794.53 	"/>
	<rect x="310.61" y="285.15" class="st7" width="516.93" height="336.38"/>
	<g id="XMLID_3_">
		<g>
			<polygon class="st8" points="817.84,707.29 827.55,729.82 803.74,729.82 793.79,707.29 			"/>
			<polygon class="st8" points="808.06,684.56 816.21,703.5 792.12,703.5 783.76,684.56 			"/>
			<polygon class="st8" points="800.03,665.91 806.43,680.77 782.08,680.77 775.52,665.91 			"/>
			<polygon class="st8" points="789.64,707.29 799.6,729.82 772.88,729.82 763.98,707.29 			"/>
			<polygon class="st8" points="791.95,647.16 798.4,662.12 773.84,662.12 767.23,647.16 			"/>
			<polygon class="st8" points="779.61,684.56 787.98,703.5 762.47,703.5 754.98,684.56 			"/>
			<polygon class="st8" points="771.38,665.91 777.93,680.77 753.48,680.77 747.6,665.91 			"/>
			<polygon class="st8" points="763.1,647.16 769.7,662.12 746.11,662.12 740.19,647.16 			"/>
			<polygon class="st8" points="759.9,707.29 768.8,729.82 741.35,729.82 733.66,707.29 			"/>
			<polygon class="st8" points="750.9,684.56 758.39,703.5 732.36,703.5 725.89,684.56 			"/>
			<polygon class="st8" points="743.54,665.91 749.41,680.77 724.59,680.77 719.51,665.91 			"/>
			<polygon class="st8" points="736.12,647.16 742.03,662.12 718.22,662.12 713.11,647.16 			"/>
			<polygon class="st8" points="729.65,707.29 737.35,729.82 709.61,729.82 703.56,707.29 			"/>
			<polygon class="st8" points="721.89,684.56 728.35,703.5 702.53,703.5 697.44,684.56 			"/>
			<polygon class="st8" points="715.51,665.91 720.58,680.77 696.43,680.77 692.43,665.91 			"/>
			<polygon class="st8" points="709.1,647.16 714.22,662.12 691.42,662.12 687.4,647.16 			"/>
			<polygon class="st8" points="699.63,707.29 705.69,729.82 678.09,729.82 673.25,707.29 			"/>
			<polygon class="st8" points="693.51,684.56 698.6,703.5 672.43,703.5 668.36,684.56 			"/>
			<polygon class="st8" points="688.51,665.91 692.5,680.77 667.56,680.77 664.36,665.91 			"/>
			<polygon class="st8" points="683.47,647.16 687.49,662.12 663.54,662.12 660.33,647.16 			"/>
			<polygon class="st8" points="669.37,707.29 674.23,729.82 646.65,729.82 643.19,707.29 			"/>
			<polygon class="st8" points="664.49,684.56 668.57,703.5 642.61,703.5 639.69,684.56 			"/>
			<polygon class="st8" points="660.48,665.91 663.68,680.77 639.11,680.77 636.83,665.91 			"/>
			<polygon class="st8" points="656.45,647.16 659.66,662.12 636.24,662.12 633.95,647.16 			"/>
			<polygon class="st8" points="639.35,707.29 642.81,729.82 615.37,729.82 613.25,707.29 			"/>
			<polygon class="st8" points="635.86,684.56 638.77,703.5 612.9,703.5 611.12,684.56 			"/>
			<polygon class="st8" points="632.99,665.91 635.28,680.77 610.76,680.77 609.36,665.91 			"/>
			<polygon class="st8" points="630.11,647.16 632.41,662.12 609.01,662.12 607.59,647.16 			"/>
			<polygon class="st8" points="609.45,707.29 611.57,729.82 585.98,729.82 585.18,707.29 			"/>
			<polygon class="st8" points="607.31,684.56 609.09,703.5 585.04,703.5 584.37,684.56 			"/>
			<polygon class="st8" points="605.55,665.91 606.95,680.77 584.24,680.77 583.72,665.91 			"/>
			<polygon class="st8" points="603.79,647.16 605.19,662.12 583.58,662.12 583.05,647.16 			"/>
			<polygon class="st8" points="581.38,707.29 582.18,729.82 554.88,729.82 555.3,707.29 			"/>
			<polygon class="st8" points="580.58,684.56 581.25,703.5 555.37,703.5 555.72,684.56 			"/>
			<polygon class="st8" points="579.93,665.91 580.45,680.77 555.79,680.77 556.07,665.91 			"/>
			<polygon class="st8" points="579.26,647.16 579.79,662.12 556.14,662.12 556.42,647.16 			"/>
			<polygon class="st8" points="552.63,647.16 552.35,662.12 529.5,662.12 530.74,647.16 			"/>
			<polygon class="st8" points="552.28,665.91 552,680.77 527.97,680.77 529.19,665.91 			"/>
			<polygon class="st8" points="551.94,684.56 551.58,703.5 526.09,703.5 527.66,684.56 			"/>
			<polygon class="st8" points="551.51,707.29 551.09,729.82 523.92,729.82 525.77,707.29 			"/>
			<polygon class="st8" points="526.94,647.16 525.7,662.12 502.61,662.12 505.05,647.16 			"/>
			<polygon class="st8" points="525.38,665.91 524.16,680.77 499.56,680.77 501.99,665.91 			"/>
			<polygon class="st8" points="523.85,684.56 522.29,703.5 495.86,703.5 498.94,684.56 			"/>
			<polygon class="st8" points="521.97,707.29 520.12,729.82 491.57,729.82 495.24,707.29 			"/>
			<polygon class="st8" points="501.21,647.16 498.77,662.12 474.58,662.12 477.68,647.16 			"/>
			<polygon class="st8" points="498.15,665.91 495.72,680.77 470.7,680.77 473.79,665.91 			"/>
			<polygon class="st8" points="495.1,684.56 492.02,703.5 465.98,703.5 469.92,684.56 			"/>
			<polygon class="st8" points="491.4,707.29 487.73,729.82 460.49,729.82 465.18,707.29 			"/>
			<polygon class="st8" points="473.82,647.16 470.71,662.12 447.96,662.12 451.78,647.16 			"/>
			<polygon class="st8" points="469.92,665.91 466.82,680.77 443.2,680.77 446.99,665.91 			"/>
			<polygon class="st8" points="466.04,684.56 462.1,703.5 437.4,703.5 442.24,684.56 			"/>
			<polygon class="st8" points="461.31,707.29 456.63,729.82 430.69,729.82 436.44,707.29 			"/>
			<polygon class="st8" points="447.87,647.16 444.05,662.12 421.62,662.12 426.51,647.16 			"/>
			<polygon class="st8" points="443.09,665.91 439.3,680.77 415.55,680.77 420.39,665.91 			"/>
			<polygon class="st8" points="438.32,684.56 433.5,703.5 408.12,703.5 414.31,684.56 			"/>
			<polygon class="st8" points="432.53,707.29 426.78,729.82 399.53,729.82 406.88,707.29 			"/>
			<polygon class="st8" points="422.52,647.16 417.65,662.12 394.96,662.12 400.9,647.16 			"/>
			<polygon class="st8" points="416.41,665.91 411.56,680.77 387.56,680.77 393.46,665.91 			"/>
			<polygon class="st8" points="410.32,684.56 404.14,703.5 378.55,703.5 386.05,684.56 			"/>
			<polygon class="st8" points="402.9,707.29 395.55,729.82 368.1,729.82 377.05,707.29 			"/>
			<polygon class="st8" points="396.82,647.16 390.88,662.12 367.4,662.12 374.23,647.16 			"/>
			<polygon class="st8" points="389.37,665.91 383.49,680.77 358.87,680.77 365.66,665.91 			"/>
			<polygon class="st8" points="381.99,684.56 374.47,703.5 348.49,703.5 357.14,684.56 			"/>
			<polygon class="st8" points="372.97,707.29 364.02,729.82 336.46,729.82 346.75,707.29 			"/>
			<polygon class="st8" points="370.06,647.16 363.23,662.12 338.66,662.12 346.35,647.16 			"/>
			<polygon class="st8" points="361.5,665.91 354.7,680.77 329.08,680.77 336.71,665.91 			"/>
			<polygon class="st8" points="352.97,684.56 344.32,703.5 317.4,703.5 327.12,684.56 			"/>
			<polygon class="st8" points="342.59,707.29 332.29,729.82 303.87,729.82 315.45,707.29 			"/>
		</g>
		<g>
		</g>
	</g>
	<circle class="st9" cx="567.74" cy="274.21" r="3.97"/>
</g>
<line class="st10" x1="310.61" y1="285.72" x2="827.55" y2="285.72"/>
<circle class="st9" cx="325.9" cy="275.45" r="3.67"/>
<circle class="st9" cx="338.31" cy="275.45" r="3.67"/>
<circle class="st9" cx="350.25" cy="275.45" r="3.67"/>
<g>
	<polygon class="st11" points="423.52,487.08 363.96,469.92 363.96,400.78 423.52,417.93 	"/>
	<polygon class="st11" points="423.52,487.08 483.07,469.92 483.07,400.78 423.52,417.93 	"/>
	<polygon class="st11" points="423.52,417.93 363.96,400.78 423.52,387.24 483.07,400.78 	"/>
</g>
<g>
	<polygon class="st11" points="691.34,487.86 647.85,475.33 647.85,424.84 691.34,437.36 	"/>
	<polygon class="st11" points="691.34,487.86 734.83,475.33 734.83,424.84 691.34,437.36 	"/>
	<polygon class="st11" points="691.34,437.36 647.85,424.84 691.34,414.95 734.83,424.84 	"/>
</g>
<g>
	<polygon class="st11" points="691.34,591.35 647.85,578.82 647.85,528.33 691.34,540.85 	"/>
	<polygon class="st11" points="691.34,591.35 734.83,578.82 734.83,528.33 691.34,540.85 	"/>
	<polygon class="st11" points="691.34,540.85 647.85,528.33 691.34,518.44 734.83,528.33 	"/>
</g>
<g>
	<polygon class="st11" points="691.34,384.26 647.85,371.73 647.85,321.23 691.34,333.76 	"/>
	<polygon class="st11" points="691.34,384.26 734.83,371.73 734.83,321.23 691.34,333.76 	"/>
	<polygon class="st11" points="691.34,333.76 647.85,321.23 691.34,311.35 734.83,321.23 	"/>
</g>
<polyline class="st11" points="483.07,447.35 579.9,447.35 579.9,349.47 647.85,349.47 "/>
<line class="st11" x1="579.9" y1="447.35" x2="647.85" y2="447.35"/>
<polyline class="st11" points="579.9,447.95 579.9,545.83 647.85,545.83 "/>
</svg>
