<?xml version="1.0" encoding="utf-8"?>
<!-- Generator: Adobe Illustrator 25.2.1, SVG Export Plug-In . SVG Version: 6.00 Build 0)  -->
<svg version="1.1" id="Layer_1" xmlns="http://www.w3.org/2000/svg" xmlns:xlink="http://www.w3.org/1999/xlink" x="0px" y="0px"
	 viewBox="0 0 1080 1080" style="enable-background:new 0 0 1080 1080;" xml:space="preserve">
<style type="text/css">
	.st0{opacity:0.3;fill:#6E47FF;}
	.st1{fill:#03001E;}
	.st2{opacity:0.2;fill:url(#SVGID_1_);}
	.st3{fill:#FFFFFF;}
	.st4{opacity:0.3;}
	.st5{fill:#A230ED;}
	.st6{fill:#6E47FF;}
</style>
<path class="st0" d="M376.8,121.96c-140.3,47.71-264.79,116.03-314.24,218.21C12.2,442.6,37.44,579.22,80.98,698.7
	c43.79,120.38,106.78,223.38,199.12,277.93c91.76,54.22,213.53,58.85,349.06,42.2c135.28-17.57,284.33-56.42,331.11-148.61
	c47.37-91.86-7.28-236.14-46.05-386.67c-39.35-150.86-62.9-306.48-152.58-371.03C672.31,47.39,516.77,74.83,376.8,121.96z"/>
<path class="st1" d="M182.84,245.72C84.93,356.96,10.99,478.19,18.98,591.43c7.33,113.9,97.25,219.81,194.5,301.74
	c97.92,82.6,203.83,140.55,311.07,141.88c106.58,1.33,214.48-55.29,323.72-137.22c108.57-82.6,218.48-190.5,213.15-293.75
	c-4.66-103.24-123.89-201.16-232.47-312.4C719.72,180.45,621.8,57.22,511.89,45.9C401.99,33.91,280.76,135.15,182.84,245.72z"/>
<radialGradient id="SVGID_1_" cx="456.5729" cy="296.2096" r="225.8403" gradientUnits="userSpaceOnUse">
	<stop  offset="0" style="stop-color:#FFFFFF"/>
	<stop  offset="1" style="stop-color:#FFFFFF;stop-opacity:0"/>
</radialGradient>
<circle class="st2" cx="456.57" cy="296.21" r="225.84"/>
<path class="st3" d="M359.13,269.72l-22.2,25.1c-15.92,18-11.48,46.06,9.23,58.27l16.58,9.77L359.13,269.72z"/>
<polygon class="st4" points="478.5,698.58 516.24,698.58 517.49,701.88 "/>
<g>
	<path class="st5" d="M252.2,765.09v159.23c46.12,34.89,93.75,63.64,142.25,83.1V765.09H252.2z"/>
	<path class="st5" d="M452.93,687.51v338.56c23.69,5.57,47.52,8.68,71.42,8.98c23.55,0.29,47.16-2.24,70.83-7.25V687.51H452.93z"/>
	<path class="st5" d="M655.09,575.3v434.8c47.16-17.71,94.57-43.98,142.25-76.09V575.3H655.09z"/>
</g>
<g>
	<g>
		<path class="st3" d="M279.74,756.45l-41.73-43.31c-1.43,3.52-2.26,7.42-2.21,11.77l41.36,40.18h92.47c0,0,0.53-3.32-0.84-7.53
			L279.74,756.45z"/>
		<path class="st5" d="M368.79,757.56c-2.44-7.54-11.36-21.48-40.07-20.81c-44.72,1.05-34.05-35.5-34.05-35.5l-21.58-15.01
			c0,0-27.09,7.22-35.09,26.9l41.73,43.31L368.79,757.56z"/>
	</g>
	<path class="st6" d="M415.71,486.87c0,0-4.69,86.78-29.55,115.4c-24.86,28.62-90.77,100.09-90.77,100.09s-21.81-7.67-22.28-16.12
		c0,0,62.39-112.12,71.3-123.38c0,0-3.22-139.67,2.85-154.73L415.71,486.87z"/>
	<path class="st4" d="M416.11,485.36l-2.42,28.07c0,0-66.25-55.09-66.25-88.42L416.11,485.36z"/>
	<path class="st6" d="M445.37,393.45l104.95,39.13c16.46,6.14,28.27,21.08,29.73,38.59c0.12,1.45,0.17,2.87,0.12,4.23
		c-0.47,14.54-38.3,97.7-64.21,148.28l-21.58-15.01c0,0,25.76-87.76,36.3-118.25l-66.48,1.2c-56.68-2.6-68.83-4.05-95.5-31.33
		c-16.61-16.98-29.27-39.9-27.28-69.77L445.37,393.45z"/>
	<path class="st4" d="M341.78,399.25c0,0,11.07,10.07,125.18,2.25l-21.59-8.05L341.78,399.25z"/>
	<g>
		<path class="st3" d="M501.03,678.88l-41.73-43.31c-1.43,3.52-2.26,7.42-2.21,11.77l41.36,40.18h92.47c0,0,0.53-3.32-0.84-7.53
			L501.03,678.88z"/>
		<path class="st5" d="M590.08,679.99c-2.44-7.54-11.36-21.48-40.07-20.81c-44.72,1.05-34.05-35.5-34.05-35.5l-21.58-15.01
			c0,0-27.09,7.22-35.09,26.9l41.73,43.31L590.08,679.99z"/>
	</g>
	<path class="st5" d="M435.9,183.27c0,0-55.22,5.87-77.76,68.52c-22.54,62.65-25.24,146.94-25.24,146.94s87.94,6.11,127.81-5.28
		l25.45-92.53c0,0,27.47-104.57-28.18-109.98L435.9,183.27z"/>
	<g>
		<path class="st3" d="M520.18,132.06l6.06-9.38c-7.76-6.07-15-14.26-19.11-23.25c-3.17-6.94-4.17-13.17-10.33-18.43
			c-5.49-4.69-12.56-7.75-19.43-9.39c-11.4-2.72-23.76-1.26-34.07,4.37c-10.47,5.72-18.93,13.57-21.74,25.62
			c-2.54,10.86,1.13,22.52,2.24,33.36c2.59,25.23,34.93,45.37,61.64,45.83c10.03,0.17,14.49-8.37,21.07-14.53l-2.92-22.28
			L520.18,132.06z"/>
		<path class="st3" d="M437.27,157.3l-12.03,28.41c0,0,27.26,19.14,46.36,11.01l-2.96-23.62L437.27,157.3z"/>
		<path class="st5" d="M430.72,74.92c1.74-0.91,27.61-27.57,55.01-8.3c0,0,13.45,9.19,20.79,4.96c0,0-5.16,16.69-33.91,17.12
			c0,0-9.49,2.27-3.79,21.42c5.69,19.15,4.06,28.13,4.06,28.13l-7.25,1.25c0,0-1.75-10.9-7.99-17.86
			c-6.72-7.49-18.88,1.03-14.01,9.84c0.88,1.6,2.08,3.32,3.66,5.18l-10.98,22.95c0,0-29.74-19.53-29.66-48.01
			C406.68,93.84,418.88,81.12,430.72,74.92z"/>
		<path class="st5" d="M508.2,173.42c-10.18,8.17-38.33,16.86-50.22-7.27l8.07-31.86l6.06,0.64c0,0,8.95,26.73,19.96,18.08
			c4.59-3.61,5.96-11.34,10.18-15.82c6.03-6.4,14.66-8.86,19.33-6.18c3.71,2.13,0.19,17.49-4.51,16.8
			c-2.55-0.37-9.21-2.04-12.24-2.97c0,0,1.68,8.16,9.62,9.46C517.52,154.78,512.85,169.69,508.2,173.42z"/>
	</g>
	<path class="st4" d="M389.02,250.35c0,0,9.1,17.68,58.27,28.55l4.5-5.13l38.76,4.69l1.38-3.9l-64.48-28.66L389.02,250.35z"/>
	<path class="st3" d="M630.98,211.55L540,288.42l-103.74-25.92l4.55-36.47l93.36,24.16l77.48-55.15c0,0-3.06-17.72,5.28-23.84
		c8.34-6.12,9.44-1.48,15.69-3.71c6.25-2.23,17.8-9.11,23.95-3.79S676.37,204.95,630.98,211.55z"/>
	<path class="st5" d="M444.26,269.72l6.53-57.68c0,0-56.84-14.16-65.3,21.82C377.02,269.85,444.26,269.72,444.26,269.72z"/>
</g>
</svg>
