<?xml version="1.0" encoding="utf-8"?>
<!-- Generator: Adobe Illustrator 25.2.1, SVG Export Plug-In . SVG Version: 6.00 Build 0)  -->
<svg version="1.1" id="Layer_1" xmlns="http://www.w3.org/2000/svg" xmlns:xlink="http://www.w3.org/1999/xlink" x="0px" y="0px"
	 viewBox="0 0 1080 1080" style="enable-background:new 0 0 1080 1080;" xml:space="preserve">
<style type="text/css">
	.st0{opacity:0.3;fill:#6E47FF;}
	.st1{fill:#03001E;}
	.st2{fill:none;stroke:#FFFFFF;stroke-width:5;stroke-miterlimit:10;}
	.st3{fill:#FFFFFF;}
	.st4{fill:#6E47FF;}
	.st5{opacity:0.1;fill:#070606;}
	.st6{fill:#A230ED;}
	.st7{fill:none;stroke:#FFFFFF;stroke-width:3;stroke-linecap:round;stroke-linejoin:round;stroke-miterlimit:10;}
	.st8{opacity:0.2;fill:url(#SVGID_1_);}
</style>
<path class="st0" d="M527.36,895.71c-136.97,14.08-288.97,41.36-389.17-16.99c-100.1-59.36-149.5-203.45-124.7-323.28
	C39.29,435.7,138.65,341.67,219.09,264.01c79.44-77.76,139.96-139.16,209.74-156.48c69.88-18.32,149,7.44,232.05,34.62
	c83.15,26.17,169.66,54.2,240.71,119.76s126.62,168.64,126.25,277.75c-0.82,108.55-57.68,224.14-148.35,282.49
	C789.36,880.06,664.87,881.18,527.36,895.71z"/>
<path class="st1" d="M735.16,276.79c115,75.71,250,150.71,290.71,259.29c40,109.29-12.86,252.14-107.86,329.29
	c-95.71,76.43-232.14,86.43-343.57,95.71c-110.71,10-196.43,19.29-261.43-11.43c-65.71-30-110.71-100-157.86-173.57
	c-47.86-72.86-97.14-149.29-110.71-245c-13.57-95.71,8.57-210.71,77.86-295c69.29-83.57,186.43-137.14,293.57-125
	C522.3,123.22,619.44,201.07,735.16,276.79z"/>
<path class="st2" d="M684.84,641.35H157.2c-9,0-16.36-7.36-16.36-16.36V289.95c0-9,7.36-16.36,16.36-16.36h527.64
	c9,0,16.36,7.36,16.36,16.36v335.05C701.2,633.99,693.84,641.35,684.84,641.35z"/>
<line class="st2" x1="140.85" y1="305.63" x2="701.2" y2="305.63"/>
<circle class="st3" cx="167.66" cy="290.82" r="4.68"/>
<circle class="st3" cx="183.19" cy="290.82" r="4.68"/>
<circle class="st3" cx="197.99" cy="290.82" r="4.68"/>
<path class="st4" d="M956.92,586.98c-11.03-4.07-35.84-12.38-69.78-18.73c-94-7.52-82.4-10.71-185.61,2.53
	c-18.78,4.36-37.89,10.21-57.11,17.9l0.01,0.17c-11.99,4.92-23.26,12.95-28.47,26.09c-2.43,6.13-7.5,30.97-13.89,65.73l242.09,3.44
	l1.24,0.02c5.24,0,9.52,4.28,9.52,9.52l14.07,203.67c17.21-9.12,33.64-19.68,49.02-31.96c42.24-34.3,76.14-81.6,97.26-133.15
	C1009.49,668.38,994.57,596.28,956.92,586.98z"/>
<polygon class="st1" points="759.53,532.57 759.52,532.57 759.53,532.57 "/>
<path class="st1" d="M711.94,480.66c-0.01-0.04-0.03-0.08-0.04-0.12c2.21,5.3,4.73,10.42,7.55,15.27
	C716.56,491.2,713.99,486.16,711.94,480.66z"/>
<path class="st1" d="M850.79,501.7c-0.01,0.02-0.03,0.05-0.03,0.05l0-0.01C850.77,501.72,850.78,501.71,850.79,501.7z"/>
<path class="st1" d="M701.2,436.44c-0.43-2.7-0.82-5.35-1.18-7.93c0-0.17,0-0.34,0-0.52L701.2,436.44z"/>
<polygon class="st3" points="850.76,501.74 850.75,501.73 850.75,501.73 850.76,501.74 850.76,501.74 "/>
<path class="st3" d="M764.03,583.52V563.3l-3.38-23.1c7.41,12.41,21.74,11.9,42.24,4.57c22.95-8.2,34.53-19.37,48.67-38.82
	l7.44,38.84c0,0,0,0,0,0c1.61,4.04,4.11,23.06,5.33,33.52c-6.13,19.08-23.51,26.23-42.91,29.07
	C794.55,611.33,767.97,610.44,764.03,583.52z"/>
<polygon class="st1" points="759.53,532.57 759.53,532.57 759.53,532.57 759.53,532.57 "/>
<polygon class="st5" points="759.53,532.57 759.53,532.57 759.53,532.57 759.53,532.57 "/>
<path class="st3" d="M760.65,540.2l-1.12-7.64h0l0,0c6.86,2.37,14.16,3.26,21.77,2.32c31.07-3.85,54.51-16.19,69.45-33.15l0,0.01
	l0.81,4.22c-14.14,19.45-25.72,30.62-48.67,38.82C782.39,552.11,768.06,552.62,760.65,540.2z"/>
<path class="st5" d="M760.65,540.2l-1.12-7.64h0l0,0c6.86,2.37,14.16,3.26,21.77,2.32c31.07-3.85,54.51-16.19,69.45-33.15l0,0.01
	l0.81,4.22c-14.14,19.45-25.72,30.62-48.67,38.82C782.39,552.11,768.06,552.62,760.65,540.2z"/>
<polygon class="st6" points="764.03,563.3 764.03,563.3 760.65,540.2 760.65,540.2 "/>
<polygon class="st6" points="760.65,540.2 760.65,540.2 759.53,532.57 759.53,532.57 "/>
<path class="st6" d="M851.97,505.41c-0.13,0.19-0.27,0.36-0.4,0.54l-0.81-4.22L851.97,505.41z"/>
<polygon class="st6" points="759.53,532.57 760.65,540.2 760.65,540.2 759.53,532.57 "/>
<path class="st6" d="M711.9,480.54c-4.38-10.52-7.5-21.71-9.12-32.81l-1.58-11.29C703.54,451.19,706.95,467.22,711.9,480.54z"/>
<path class="st6" d="M759.52,532.57c-16.19-5.59-29.99-19.4-40.08-36.76C734.92,520.49,759.37,532.49,759.52,532.57z"/>
<polygon class="st3" points="866.26,420.85 866.26,420.85 866.26,420.85 "/>
<path class="st3" d="M867.1,427.19c-0.55-4.36-0.84-6.33-0.84-6.34l0.91,6.23C867.15,427.12,867.13,427.16,867.1,427.19z"/>
<path class="st6" d="M700.02,427.99c0,0.17,0,0.34,0,0.52c-0.34-2.47-0.65-4.88-0.94-7.2L700.02,427.99z"/>
<path class="st6" d="M723.74,281.76c29.52-18.94,66.79-21.82,99.31-8.68c29.14,11.77,65.18,54.28,69.81,111.92
	c5.14,64.02,15.54,132.37,10.8,172.54c-3.29,27.84-14.53,34.68-37.02,47.97c0,0-1.31-19.34-3.32-36.53
	c-1.22-10.45-2.71-20.12-4.32-24.16c0,0,0,0,0,0l-7.44-38.84c0.13-0.18,0.27-0.36,0.4-0.54l-1.21-3.67l0,0c0,0,0.02-0.03,0.03-0.05
	c9.43-10.71,15.46-23.27,17.88-36.71c1.16-4.8,1.7-9.6,1.21-14.06c-0.01-0.09-0.02-0.16-0.03-0.25c-0.03-3.63-0.29-7.3-0.83-10.98
	l-1.85-12.62c10.43-15.77,6.29-42.1-0.89-45.62c-2-0.98-3.96-0.9-5.82-0.18c-0.49,0.19-0.98,0.43-1.46,0.71
	c-0.35,0.2-0.69,0.42-1.02,0.66l2.38,11.01l0.77,6.63c0,0-4.03-4.47-9.19-11.13c-8.47-10.92-20-27.72-21.84-40.35
	c0,0-117.31,6.61-128.58,62.21c-1.1,5.44-1.54,11.18-1.52,16.97l-0.93-6.69c0.28,2.33,0.6,4.73,0.94,7.2
	c0.36,2.59,0.75,5.24,1.18,7.93l1.58,11.29c1.62,11.09,4.75,22.29,9.12,32.81c0.01,0.04,0.03,0.08,0.04,0.12
	c2.05,5.49,4.62,10.54,7.51,15.15c10.08,17.35,23.89,31.17,40.08,36.76c0,0,0.01,0,0.01,0l1.12,7.64c0,0,0,0,0,0l2.39,16.32
	c0.66,4.51,0.99,9.07,0.99,13.63v13.37l-24.54,32.35c-11.72-8.21-25.68-21.62-34.14-45.24c-14.02-39.13-3.69-91.86-20.05-166.71
	C671.52,340.91,696.76,299.07,723.74,281.76z"/>
<path class="st3" d="M701.2,436.44l-1.18-8.45c-0.02-5.79,0.41-11.53,1.52-16.97c11.27-55.6,128.58-62.21,128.58-62.21
	c1.84,12.63,13.37,29.44,21.84,40.35c5.16,6.65,9.19,11.13,9.19,11.13l-0.77-6.63l-2.38-11.01c0.34-0.24,0.68-0.46,1.02-0.66
	c0.48-0.28,0.96-0.52,1.46-0.71c1.86-0.73,3.82-0.8,5.82,0.18c7.17,3.53,11.31,29.85,0.89,45.62l-0.91-6.23l0,0v0l0,0
	c0,0.01,0.29,1.98,0.84,6.34c0.02-0.04,0.05-0.07,0.07-0.11l1.85,12.62c0.54,3.69,0.8,7.35,0.83,10.98
	c0.01,0.09,0.02,0.16,0.03,0.25c0.49,4.46-0.05,9.26-1.21,14.06c-2.42,13.44-8.45,25.99-17.88,36.71c-0.01,0.01-0.02,0.03-0.04,0.04
	c0,0,0,0,0,0c-14.94,16.96-38.38,29.3-69.45,33.15c-7.62,0.94-14.91,0.05-21.77-2.32c0,0,0,0,0,0c0,0-0.01,0-0.01,0
	c-0.15-0.07-24.6-12.07-40.08-36.76c-2.82-4.85-5.35-9.97-7.55-15.27C706.95,467.22,703.54,451.19,701.2,436.44z"/>
<polygon class="st5" points="902.07,701.04 847.93,832.57 860.89,863.51 "/>
<g>
	<polygon class="st7" points="257.11,515.3 191.8,496.48 191.8,420.65 257.11,439.47 	"/>
	<polygon class="st7" points="257.11,515.3 322.43,496.48 322.43,420.65 257.11,439.47 	"/>
	<polygon class="st7" points="257.11,439.46 191.8,420.65 257.11,405.81 322.43,420.65 	"/>
</g>
<g>
	<polygon class="st7" points="550.85,536.16 503.15,522.42 503.15,467.04 550.85,480.78 	"/>
	<polygon class="st7" points="550.85,536.16 598.55,522.42 598.55,467.04 550.85,480.78 	"/>
	<polygon class="st7" points="550.85,480.78 503.15,467.04 550.85,456.2 598.55,467.04 	"/>
</g>
<g>
	<polygon class="st7" points="379.25,620.26 331.55,606.52 331.55,551.14 379.25,564.88 	"/>
	<polygon class="st7" points="379.25,620.26 426.95,606.52 426.95,551.14 379.25,564.88 	"/>
	<polygon class="st7" points="379.25,564.88 331.55,551.14 379.25,540.3 426.95,551.14 	"/>
</g>
<g>
	<polygon class="st7" points="550.85,402.53 503.15,388.79 503.15,333.41 550.85,347.15 	"/>
	<polygon class="st7" points="550.85,402.53 598.55,388.79 598.55,333.41 550.85,347.15 	"/>
	<polygon class="st7" points="550.85,347.15 503.15,333.41 550.85,322.57 598.55,333.41 	"/>
</g>
<polyline class="st7" points="322.43,471.73 428.63,471.73 428.63,364.38 503.15,364.38 "/>
<line class="st7" x1="428.63" y1="471.73" x2="503.15" y2="471.73"/>
<line class="st7" x1="379.25" y1="471.73" x2="379.25" y2="540.3"/>
<g>
	<circle class="st6" cx="603.01" cy="391.4" r="29.25"/>
	<g>
		<path class="st3" d="M598.53,405.23c-1.16,0-2.31-0.44-3.2-1.32l-9.66-9.66c-1.77-1.77-1.77-4.63,0-6.39
			c1.77-1.77,4.63-1.77,6.39,0l6.47,6.47l15.42-15.42c1.77-1.77,4.63-1.77,6.39,0c1.77,1.77,1.77,4.63,0,6.39l-18.62,18.62
			C600.84,404.79,599.69,405.23,598.53,405.23z"/>
	</g>
</g>
<g>
	<circle class="st6" cx="603.01" cy="522.06" r="29.25"/>
	<g>
		<path class="st3" d="M598.53,535.89c-1.16,0-2.31-0.44-3.2-1.32l-9.66-9.66c-1.77-1.77-1.77-4.63,0-6.39
			c1.77-1.77,4.63-1.77,6.39,0l6.47,6.47l15.42-15.42c1.77-1.77,4.63-1.77,6.39,0c1.77,1.77,1.77,4.63,0,6.39l-18.62,18.62
			C600.84,535.45,599.69,535.89,598.53,535.89z"/>
	</g>
</g>
<g>
	<circle class="st6" cx="432.43" cy="594.13" r="29.25"/>
	<path class="st3" d="M438.82,594.13l7.12-7.12c1.77-1.77,1.77-4.63,0-6.39c-1.77-1.77-4.63-1.77-6.39,0l-7.12,7.12l-7.12-7.12
		c-1.77-1.77-4.63-1.77-6.39,0c-1.77,1.77-1.77,4.63,0,6.39l7.12,7.12l-7.12,7.12c-1.77,1.77-1.77,4.63,0,6.39
		c0.88,0.88,2.04,1.32,3.2,1.32c1.16,0,2.31-0.44,3.2-1.32l7.12-7.12l7.12,7.12c0.88,0.88,2.04,1.32,3.2,1.32s2.31-0.44,3.2-1.32
		c1.77-1.77,1.77-4.63,0-6.39L438.82,594.13z"/>
</g>
<radialGradient id="SVGID_1_" cx="701.1991" cy="755.9511" r="252.7053" gradientUnits="userSpaceOnUse">
	<stop  offset="0" style="stop-color:#FFFFFF"/>
	<stop  offset="0.8575" style="stop-color:#FFFFFF;stop-opacity:0.1425"/>
	<stop  offset="1" style="stop-color:#FFFFFF;stop-opacity:0"/>
</radialGradient>
<circle class="st8" cx="701.2" cy="755.95" r="252.71"/>
<path class="st6" d="M854.92,693.65c0-5.24-4.28-9.52-9.52-9.52l-1.24-0.02l-242.09-3.44l-192.22-2.73c-5.24,0-9.52,4.28-9.52,9.52
	l18.54,268.36c0,5.24,4.28,9.52,9.52,9.52l84.28,1.2c13.49-1.1,27.41-2.34,41.77-3.65c6.58-0.6,13.25-1.2,20.01-1.82
	c93.52-7.79,204.66-16.1,294.55-63.75L854.92,693.65z"/>
<circle class="st3" cx="623.49" cy="812.58" r="20"/>
</svg>
